<svg width="38" height="38" viewBox="0 0 38 38" fill="none" xmlns="http://www.w3.org/2000/svg">
<g opacity="0.8">
<path d="M19 8.70837C20.4697 8.70837 21.8793 9.29223 22.9186 10.3315C23.9578 11.3708 24.5417 12.7803 24.5417 14.25C24.5417 15.7198 23.9578 17.1293 22.9186 18.1686C21.8793 19.2079 20.4697 19.7917 19 19.7917C17.5303 19.7917 16.1207 19.2079 15.0815 18.1686C14.0422 17.1293 13.4583 15.7198 13.4583 14.25C13.4583 12.7803 14.0422 11.3708 15.0815 10.3315C16.1207 9.29223 17.5303 8.70837 19 8.70837ZM7.91667 12.6667C8.80333 12.6667 9.62667 12.9042 10.3392 13.3317C10.1017 15.5959 10.7667 17.8442 12.1283 19.6017C11.3367 21.1217 9.75333 22.1667 7.91667 22.1667C6.65689 22.1667 5.44871 21.6663 4.55791 20.7755C3.66711 19.8847 3.16667 18.6765 3.16667 17.4167C3.16667 16.1569 3.66711 14.9487 4.55791 14.0579C5.44871 13.1672 6.65689 12.6667 7.91667 12.6667ZM30.0833 12.6667C31.3431 12.6667 32.5513 13.1672 33.4421 14.0579C34.3329 14.9487 34.8333 16.1569 34.8333 17.4167C34.8333 18.6765 34.3329 19.8847 33.4421 20.7755C32.5513 21.6663 31.3431 22.1667 30.0833 22.1667C28.2467 22.1667 26.6633 21.1217 25.8717 19.6017C27.2333 17.8442 27.8983 15.5959 27.6608 13.3317C28.3733 12.9042 29.1967 12.6667 30.0833 12.6667ZM8.70833 28.8959C8.70833 25.6184 13.3158 22.9584 19 22.9584C24.6842 22.9584 29.2917 25.6184 29.2917 28.8959V31.6667H8.70833V28.8959ZM0 31.6667V29.2917C0 27.0909 2.9925 25.2384 7.04583 24.7C6.11167 25.7767 5.54167 27.265 5.54167 28.8959V31.6667H0ZM38 31.6667H32.4583V28.8959C32.4583 27.265 31.8883 25.7767 30.9542 24.7C35.0075 25.2384 38 27.0909 38 29.2917V31.6667Z" fill="white"/>
</g>
</svg>
