<svg width="26" height="26" viewBox="0 0 26 26" fill="none" xmlns="http://www.w3.org/2000/svg">
<path opacity="0.8" d="M19.4211 2.73684C20.2435 2.73684 21.0658 2.73684 21.7511 2.87368C21.943 5.06316 21.9978 8.78526 20.7643 12.3158C21.7374 12.3158 22.6557 12.5484 23.5055 12.8768C25.5066 6.70526 24.2182 0.410526 24.2182 0.410526C24.2182 0.410526 22.2994 0 19.4211 0C11.8828 0 -1.96034 2.87368 0.232627 24.3579C1.74029 24.4947 3.24796 24.6316 4.61856 24.6316C7.83948 24.6316 10.567 24.2074 12.8422 23.4821C12.5132 22.6337 12.294 21.7168 12.294 20.7589C10.1147 21.5116 7.53795 21.8947 4.61856 21.8947H2.83678C2.56266 15.6 3.7962 10.6737 6.67447 7.52632C10.101 3.55789 15.5834 2.73684 19.4211 2.73684ZM19.147 5.47368C5.44093 5.47368 5.44093 19.1579 5.44093 19.1579C10.9233 8.21053 19.147 5.47368 19.147 5.47368ZM19.147 19.1579H15.0352V21.8947H19.147V26H21.8882V21.8947H26V19.1579H21.8882V15.0526H19.147V19.1579Z" fill="white"/>
</svg>
