<svg width="80" height="80" viewBox="0 0 80 80" fill="none" xmlns="http://www.w3.org/2000/svg">
<path d="M70 36.6667V30H63.3333V23.3333C63.3281 21.5668 62.624 19.8742 61.3749 18.6251C60.1258 17.376 58.4332 16.6719 56.6667 16.6667H50V10H43.3333V16.6667H36.6667V10H30V16.6667H23.3333C21.5668 16.6719 19.8742 17.376 18.6251 18.6251C17.376 19.8742 16.6719 21.5668 16.6667 23.3333V30H10V36.6667H16.6667V43.3333H10V50H16.6667V56.6667C16.6719 58.4332 17.376 60.1258 18.6251 61.3749C19.8742 62.624 21.5668 63.3281 23.3333 63.3333H30V70H36.6667V63.3333H43.3333V70H50V63.3333H56.6667C58.4332 63.3281 60.1258 62.624 61.3749 61.3749C62.624 60.1258 63.3281 58.4332 63.3333 56.6667V50H70V43.3333H63.3333V36.6667H70ZM56.6667 56.6667H23.3333V23.3333H56.6667V56.6667Z" fill="#4ECB71"/>
<path d="M37.8699 26.6666H33.3865L26.6865 53.3333H30.1099L31.6565 47.0833H39.3765L40.8832 53.3333H44.4232L37.8699 26.6666ZM32.1065 44.4133L35.4999 29.8333H35.6532L38.9299 44.4133H32.1065ZM47.4799 26.6666H50.8132V53.3333H47.4799V26.6666Z" fill="#4ECB71"/>
</svg>
