<svg width="107" height="107" viewBox="0 0 107 107" fill="none" xmlns="http://www.w3.org/2000/svg">
<rect opacity="0.14" x="0.241699" y="0.464844" width="106" height="106" rx="30" fill="#3D52A0"/>
<path fill-rule="evenodd" clip-rule="evenodd" d="M37.1442 39.7295C37.7108 38.3514 38.6532 37.1771 39.8542 36.3523C41.0553 35.5275 42.4622 35.0885 43.9004 35.0898H62.5888C65.5263 35.0898 68.1818 36.9151 69.3392 39.7295L71.6657 45.389C71.886 45.925 72.2826 46.366 72.7819 46.6263C74.2507 47.3919 75.2935 48.816 75.6166 50.4912L76.6007 55.6331C76.6976 56.1262 76.7446 56.6284 76.7446 57.1337V58.3985C76.7446 60.8914 75.599 63.124 73.8071 64.5143V70.3086C73.8071 70.7147 73.6524 71.1042 73.3769 71.3914C73.1015 71.6785 72.7279 71.8398 72.3384 71.8398H66.4634C66.0738 71.8398 65.7003 71.6785 65.4248 71.3914C65.1494 71.1042 64.9946 70.7147 64.9946 70.3086V66.211C61.1994 66.358 56.9312 66.4805 53.2446 66.4805C49.5581 66.4805 45.2899 66.358 41.4946 66.211V70.3086C41.4946 70.7147 41.3399 71.1042 41.0644 71.3914C40.789 71.6785 40.4154 71.8398 40.0259 71.8398H34.1509C33.7613 71.8398 33.3878 71.6785 33.1123 71.3914C32.8369 71.1042 32.6821 70.7147 32.6821 70.3086V64.5143C30.8903 63.124 29.7446 60.8914 29.7446 58.3985V57.1337C29.7451 56.6298 29.7933 56.1271 29.8886 55.6331L30.8726 50.4881C31.1958 48.816 32.2386 47.3888 33.7044 46.6263C34.2061 46.3649 34.6026 45.9265 34.8236 45.389L37.1501 39.7295H37.1442ZM38.5542 59.5898C39.3333 59.5898 40.0804 59.2672 40.6313 58.6929C41.1822 58.1185 41.4917 57.3396 41.4917 56.5273C41.4917 55.7151 41.1822 54.9362 40.6313 54.3618C40.0804 53.7875 39.3333 53.4648 38.5542 53.4648C37.7751 53.4648 37.028 53.7875 36.4771 54.3618C35.9262 54.9362 35.6167 55.7151 35.6167 56.5273C35.6167 57.3396 35.9262 58.1185 36.4771 58.6929C37.028 59.2672 37.7751 59.5898 38.5542 59.5898ZM67.9292 59.5898C68.7083 59.5898 69.4554 59.2672 70.0063 58.6929C70.5572 58.1185 70.8667 57.3396 70.8667 56.5273C70.8667 55.7151 70.5572 54.9362 70.0063 54.3618C69.4554 53.7875 68.7083 53.4648 67.9292 53.4648C67.1501 53.4648 66.403 53.7875 65.8521 54.3618C65.3012 54.9362 64.9917 55.7151 64.9917 56.5273C64.9917 57.3396 65.3012 58.1185 65.8521 58.6929C66.403 59.2672 67.1501 59.5898 67.9292 59.5898ZM47.3667 53.4648C46.5876 53.4648 45.8405 53.7875 45.2896 54.3618C44.7387 54.9362 44.4292 55.7151 44.4292 56.5273C44.4292 57.3396 44.7387 58.1185 45.2896 58.6929C45.8405 59.2672 46.5876 59.5898 47.3667 59.5898H59.1167C59.8958 59.5898 60.6429 59.2672 61.1938 58.6929C61.7447 58.1185 62.0542 57.3396 62.0542 56.5273C62.0542 55.7151 61.7447 54.9362 61.1938 54.3618C60.6429 53.7875 59.8958 53.4648 59.1167 53.4648H47.3667ZM38.2781 44.8562L41.0863 38.9976C41.2084 38.7436 41.3959 38.53 41.6278 38.3807C41.8597 38.2314 42.1268 38.1524 42.3994 38.1523H64.084C64.3565 38.1524 64.6237 38.2314 64.8556 38.3807C65.0875 38.53 65.275 38.7436 65.3971 38.9976L68.2053 44.8562C68.3201 45.1032 68.3705 45.3773 68.3513 45.6511C68.3321 45.9249 68.2441 46.1885 68.0961 46.4155C67.948 46.6425 67.7453 46.8248 67.5081 46.9441C67.271 47.0633 67.0079 47.1153 66.7454 47.0948C64.0723 46.8713 56.9048 46.5742 53.2417 46.5742C49.5786 46.5742 42.4082 46.8713 39.738 47.0948C39.4755 47.1153 39.2124 47.0633 38.9753 46.9441C38.7381 46.8248 38.5353 46.6425 38.3873 46.4155C38.2393 46.1885 38.1512 45.9249 38.1321 45.6511C38.1129 45.3773 38.1632 45.1032 38.2781 44.8562Z" fill="#3D52A0"/>
</svg>
