<svg width="80" height="80" viewBox="0 0 80 80" fill="none" xmlns="http://www.w3.org/2000/svg">
<path d="M33.3332 16.6667C33.3332 17.9799 33.0745 19.2803 32.572 20.4935C32.0694 21.7068 31.3328 22.8092 30.4042 23.7378C29.4757 24.6663 28.3733 25.4029 27.16 25.9055C25.9467 26.408 24.6464 26.6667 23.3332 26.6667C22.02 26.6667 20.7196 26.408 19.5063 25.9055C18.2931 25.4029 17.1907 24.6663 16.2621 23.7378C15.3335 22.8092 14.5969 21.7068 14.0944 20.4935C13.5918 19.2803 13.3332 17.9799 13.3332 16.6667C13.3332 14.0145 14.3867 11.471 16.2621 9.59562C18.1375 7.72026 20.681 6.66669 23.3332 6.66669C25.9853 6.66669 28.5289 7.72026 30.4042 9.59562C32.2796 11.471 33.3332 14.0145 33.3332 16.6667ZM39.9998 46.6667C41.3131 46.6667 42.6134 46.408 43.8267 45.9055C45.0399 45.4029 46.1423 44.6663 47.0709 43.7378C47.9995 42.8092 48.7361 41.7068 49.2386 40.4935C49.7412 39.2803 49.9998 37.9799 49.9998 36.6667C49.9998 35.3535 49.7412 34.0531 49.2386 32.8399C48.7361 31.6266 47.9995 30.5242 47.0709 29.5956C46.1423 28.667 45.0399 27.9304 43.8267 27.4279C42.6134 26.9253 41.3131 26.6667 39.9998 26.6667C37.3477 26.6667 34.8041 27.7203 32.9288 29.5956C31.0534 31.471 29.9998 34.0145 29.9998 36.6667C29.9998 39.3189 31.0534 41.8624 32.9288 43.7378C34.8041 45.6131 37.3477 46.6667 39.9998 46.6667ZM23.6665 33.3334H13.3332C11.5651 33.3334 9.86937 34.0357 8.61913 35.286C7.36888 36.5362 6.6665 38.2319 6.6665 40V41.38C6.6665 45.3534 8.95317 48.62 11.9798 50.76C13.7932 52.0467 15.9598 53 18.3265 53.56C20.1198 50.3067 23.2332 47.8934 26.9398 47.02C25.425 45.1177 24.3467 42.9058 23.7811 40.5407C23.2154 38.1757 23.1763 35.7152 23.6665 33.3334ZM53.0665 47.02C54.8776 47.4481 56.579 48.2505 58.0613 49.3757C59.5436 50.501 60.774 51.924 61.6732 53.5534C64.0398 53 66.2065 52.0467 68.0198 50.76C71.0465 48.6267 73.3332 45.3534 73.3332 41.38V40C73.3332 38.2319 72.6308 36.5362 71.3805 35.286C70.1303 34.0357 68.4346 33.3334 66.6665 33.3334H56.3332C56.8151 35.7151 56.7725 38.1732 56.2084 40.5367C55.6443 42.9003 54.5721 45.1127 53.0665 47.02ZM29.9998 53.3334C28.2317 53.3334 26.536 54.0357 25.2858 55.286C24.0355 56.5362 23.3332 58.2319 23.3332 60V61.1133C23.3332 65.0267 25.7132 68.1667 28.7198 70.1667C31.7532 72.2 35.7532 73.3334 39.9998 73.3334C44.2465 73.3334 48.2465 72.1934 51.2798 70.1667C54.2798 68.1667 56.6665 65.0267 56.6665 61.1133V60C56.6665 58.2319 55.9641 56.5362 54.7139 55.286C53.4636 54.0357 51.7679 53.3334 49.9998 53.3334H29.9998ZM59.9998 26.6667C62.652 26.6667 65.1955 25.6131 67.0709 23.7378C68.9463 21.8624 69.9998 19.3189 69.9998 16.6667C69.9998 14.0145 68.9463 11.471 67.0709 9.59562C65.1955 7.72026 62.652 6.66669 59.9998 6.66669C57.3477 6.66669 54.8041 7.72026 52.9288 9.59562C51.0534 11.471 49.9998 14.0145 49.9998 16.6667C49.9998 19.3189 51.0534 21.8624 52.9288 23.7378C54.8041 25.6131 57.3477 26.6667 59.9998 26.6667Z" fill="#4ECB71"/>
</svg>
