<svg width="30" height="30" viewBox="0 0 30 30" fill="none" xmlns="http://www.w3.org/2000/svg">
<path d="M12.5 6.25C12.5 6.74246 12.403 7.23009 12.2145 7.68506C12.0261 8.14003 11.7499 8.55343 11.4017 8.90165C11.0534 9.24987 10.64 9.52609 10.1851 9.71455C9.73009 9.903 9.24246 10 8.75 10C8.25754 10 7.76991 9.903 7.31494 9.71455C6.85997 9.52609 6.44657 9.24987 6.09835 8.90165C5.75013 8.55343 5.47391 8.14003 5.28545 7.68506C5.097 7.23009 5 6.74246 5 6.25C5 5.25544 5.39509 4.30161 6.09835 3.59835C6.80161 2.89509 7.75544 2.5 8.75 2.5C9.74456 2.5 10.6984 2.89509 11.4017 3.59835C12.1049 4.30161 12.5 5.25544 12.5 6.25ZM15 17.5C15.4925 17.5 15.9801 17.403 16.4351 17.2145C16.89 17.0261 17.3034 16.7499 17.6517 16.4017C17.9999 16.0534 18.2761 15.64 18.4645 15.1851C18.653 14.7301 18.75 14.2425 18.75 13.75C18.75 13.2575 18.653 12.7699 18.4645 12.3149C18.2761 11.86 17.9999 11.4466 17.6517 11.0983C17.3034 10.7501 16.89 10.4739 16.4351 10.2855C15.9801 10.097 15.4925 10 15 10C14.0054 10 13.0516 10.3951 12.3483 11.0983C11.6451 11.8016 11.25 12.7554 11.25 13.75C11.25 14.7446 11.6451 15.6984 12.3483 16.4017C13.0516 17.1049 14.0054 17.5 15 17.5ZM8.875 12.5H5C4.33696 12.5 3.70107 12.7634 3.23223 13.2322C2.76339 13.7011 2.5 14.337 2.5 15V15.5175C2.5 17.0075 3.3575 18.2325 4.4925 19.035C5.1725 19.5175 5.985 19.875 6.8725 20.085C7.545 18.865 8.7125 17.96 10.1025 17.6325C9.53445 16.9191 9.13007 16.0897 8.91796 15.2028C8.70585 14.3159 8.69118 13.3932 8.875 12.5ZM19.9 17.6325C20.5792 17.793 21.2172 18.0939 21.7731 18.5159C22.3289 18.9379 22.7903 19.4715 23.1275 20.0825C24.015 19.875 24.8275 19.5175 25.5075 19.035C26.6425 18.235 27.5 17.0075 27.5 15.5175V15C27.5 14.337 27.2366 13.7011 26.7678 13.2322C26.2989 12.7634 25.663 12.5 25 12.5H21.125C21.3057 13.3931 21.2898 14.3149 21.0782 15.2013C20.8667 16.0876 20.4646 16.9173 19.9 17.6325ZM11.25 20C10.587 20 9.95107 20.2634 9.48223 20.7322C9.01339 21.2011 8.75 21.837 8.75 22.5V22.9175C8.75 24.385 9.6425 25.5625 10.77 26.3125C11.9075 27.075 13.4075 27.5 15 27.5C16.5925 27.5 18.0925 27.0725 19.23 26.3125C20.355 25.5625 21.25 24.385 21.25 22.9175V22.5C21.25 21.837 20.9866 21.2011 20.5178 20.7322C20.0489 20.2634 19.413 20 18.75 20H11.25ZM22.5 10C23.4946 10 24.4484 9.60491 25.1517 8.90165C25.8549 8.19839 26.25 7.24456 26.25 6.25C26.25 5.25544 25.8549 4.30161 25.1517 3.59835C24.4484 2.89509 23.4946 2.5 22.5 2.5C21.5054 2.5 20.5516 2.89509 19.8483 3.59835C19.1451 4.30161 18.75 5.25544 18.75 6.25C18.75 7.24456 19.1451 8.19839 19.8483 8.90165C20.5516 9.60491 21.5054 10 22.5 10Z" fill="black"/>
</svg>
