<svg width="38" height="33" viewBox="0 0 38 33" fill="none" xmlns="http://www.w3.org/2000/svg">
<g opacity="0.9">
<path d="M18.0968 1.71C18.4536 1.44011 18.9464 1.44011 19.3032 1.71L33.9891 12.8169C34.0288 12.847 34.0346 12.8676 34.0369 12.8762C34.0413 12.8925 34.0427 12.921 34.0307 12.9552C34.0186 12.9895 33.9996 13.0108 33.986 13.0207C33.9788 13.026 33.9613 13.0384 33.9115 13.0369C32.7148 13.0007 31.725 13.961 31.725 15.1583V31C31.725 31.5523 31.2773 32 30.725 32H25.375C24.8227 32 24.375 31.5523 24.375 31V25.5714C24.375 23.9146 23.0319 22.5714 21.375 22.5714H16.025C14.3681 22.5714 13.025 23.9146 13.025 25.5714V31C13.025 31.5523 12.5773 32 12.025 32H6.675C6.12272 32 5.675 31.5523 5.675 31V15.3175C5.675 14.1165 4.70139 13.1429 3.50038 13.1429C3.43974 13.1429 3.4117 13.1265 3.39561 13.1142C3.37364 13.0974 3.34937 13.0671 3.33483 13.0238C3.3203 12.9805 3.3214 12.9417 3.32879 12.915C3.3342 12.8955 3.34668 12.8655 3.39505 12.829L18.0968 1.71Z" stroke="white" stroke-width="2"/>
</g>
</svg>
