<svg width="80" height="80" viewBox="0 0 80 80" fill="none" xmlns="http://www.w3.org/2000/svg">
<g clip-path="url(#clip0_27_313)">
<path d="M73.7955 30.6094L63.3174 27.0156C60.3049 25.9844 58.0768 23.7469 57.358 21.0297L54.858 11.5844C53.0487 4.74529 42.894 2.65779 37.6705 8.04998L30.469 15.5062C28.3971 17.6484 25.2283 18.7765 22.0002 18.5234L10.7658 17.6453C2.64084 17.0094 -2.81697 24.6594 1.54709 30.589L7.56897 38.7797C9.30022 41.1344 9.57209 44.0703 8.29397 46.6297L3.85178 55.5359C0.625219 61.9797 7.41584 68.7953 15.3299 67.0672L26.2674 64.6797C29.4096 63.9937 32.744 64.6797 35.1846 66.5125L43.6721 72.8922C49.8158 77.5109 59.4533 74.075 59.9924 67.0765L60.7268 57.4109C60.9377 54.6297 62.7268 52.1187 65.5127 50.6922L75.2002 45.7328C82.2065 42.1453 81.3799 33.2062 73.7955 30.6094ZM25.0002 40C24.0113 40 23.0446 39.7067 22.2224 39.1573C21.4001 38.6079 20.7593 37.827 20.3808 36.9134C20.0024 35.9998 19.9034 34.9944 20.0963 34.0245C20.2892 33.0546 20.7654 32.1637 21.4647 31.4644C22.1639 30.7652 23.0549 30.289 24.0248 30.0961C24.9947 29.9031 26 30.0021 26.9136 30.3806C27.8273 30.759 28.6082 31.3999 29.1576 32.2221C29.707 33.0444 30.0002 34.0111 30.0002 35C30.0002 36.3261 29.4734 37.5978 28.5358 38.5355C27.5981 39.4732 26.3263 40 25.0002 40ZM45.0002 55C44.0113 55 43.0446 54.7067 42.2224 54.1573C41.4001 53.6079 40.7593 52.827 40.3808 51.9134C40.0024 50.9998 39.9034 49.9944 40.0963 49.0245C40.2892 48.0546 40.7654 47.1637 41.4647 46.4644C42.1639 45.7652 43.0549 45.289 44.0248 45.0961C44.9947 44.9031 46 45.0021 46.9136 45.3806C47.8273 45.759 48.6082 46.3999 49.1576 47.2221C49.707 48.0444 50.0002 49.0111 50.0002 50C50.0002 51.3261 49.4734 52.5978 48.5358 53.5355C47.5981 54.4732 46.3263 55 45.0002 55ZM47.5002 35C47.0058 35 46.5224 34.8534 46.1113 34.5787C45.7002 34.304 45.3797 33.9135 45.1905 33.4567C45.0013 32.9999 44.9518 32.4972 45.0483 32.0123C45.1447 31.5273 45.3828 31.0818 45.7324 30.7322C46.0821 30.3826 46.5275 30.1445 47.0125 30.048C47.4974 29.9516 48.0001 30.0011 48.4569 30.1903C48.9137 30.3795 49.3042 30.6999 49.5789 31.1111C49.8536 31.5222 50.0002 32.0055 50.0002 32.5C50.0002 33.163 49.7368 33.7989 49.268 34.2677C48.7991 34.7366 48.1633 35 47.5002 35Z" fill="#4ECB71"/>
</g>
<defs>
<clipPath id="clip0_27_313">
<rect width="80" height="80" fill="white"/>
</clipPath>
</defs>
</svg>
