<svg width="30" height="30" viewBox="0 0 30 30" fill="none" xmlns="http://www.w3.org/2000/svg">
<path d="M11.4188 3.125C8.08625 3.2 6.14 3.5175 4.81 4.84375C3.645 6.00375 3.25625 7.63375 3.125 10.25M18.5825 3.125C21.915 3.2 23.8612 3.5175 25.1912 4.84375C26.3562 6.00375 26.745 7.63375 26.875 10.25M18.5825 26.875C21.915 26.8 23.8612 26.4812 25.1912 25.1562C26.3562 23.9963 26.745 22.365 26.875 19.75M11.4188 26.875C8.08625 26.8 6.14 26.4812 4.81 25.1562C3.645 23.9963 3.25625 22.365 3.12625 19.75M10 21.25C12.2975 18.0062 17.6487 17.8288 20 21.25M18.125 11.875C18.125 12.7038 17.7958 13.4987 17.2097 14.0847C16.6237 14.6708 15.8288 15 15 15C14.1712 15 13.3763 14.6708 12.7903 14.0847C12.2042 13.4987 11.875 12.7038 11.875 11.875C11.875 11.0462 12.2042 10.2513 12.7903 9.66529C13.3763 9.07924 14.1712 8.75 15 8.75C15.8288 8.75 16.6237 9.07924 17.2097 9.66529C17.7958 10.2513 18.125 11.0462 18.125 11.875Z" stroke="black" stroke-width="1.5" stroke-linecap="round" stroke-linejoin="round"/>
</svg>
