<svg width="590" height="330" viewBox="0 0 590 330" fill="none" xmlns="http://www.w3.org/2000/svg">
<g clip-path="url(#clip0_36_368)">
<path d="M145.465 10.9813C148.806 10.9813 151.514 8.52308 151.514 5.49067C151.514 2.45826 148.806 0 145.465 0C142.124 0 139.415 2.45826 139.415 5.49067C139.415 8.52308 142.124 10.9813 145.465 10.9813Z" fill="#3F3D56"/>
<path d="M166.362 10.9813C169.703 10.9813 172.412 8.52308 172.412 5.49067C172.412 2.45826 169.703 0 166.362 0C163.021 0 160.313 2.45826 160.313 5.49067C160.313 8.52308 163.021 10.9813 166.362 10.9813Z" fill="#3F3D56"/>
<path d="M187.26 10.9813C190.601 10.9813 193.31 8.52308 193.31 5.49067C193.31 2.45826 190.601 0 187.26 0C183.919 0 181.211 2.45826 181.211 5.49067C181.211 8.52308 183.919 10.9813 187.26 10.9813Z" fill="#3F3D56"/>
<path d="M211.089 9.83033C210.903 9.83033 210.718 9.76644 210.578 9.6393L206.496 5.93463C206.224 5.68777 206.224 5.2933 206.496 5.04645L210.578 1.34209C210.855 1.09151 211.308 1.08748 211.59 1.33217C211.872 1.57747 211.877 1.97969 211.601 2.23027L208.008 5.49054L211.601 8.75112C211.877 9.00169 211.872 9.40391 211.59 9.64922C211.45 9.77016 211.27 9.83033 211.089 9.83033Z" fill="#3F3D56"/>
<path d="M217.948 9.83032C217.768 9.83032 217.587 9.77015 217.448 9.64921C217.166 9.4039 217.161 9.00199 217.437 8.75111L221.029 5.49053L217.437 2.23026C217.161 1.97968 217.166 1.57746 217.448 1.33216C217.73 1.08654 218.183 1.0912 218.46 1.34208L222.541 5.04644C222.813 5.29329 222.813 5.68776 222.541 5.93462L218.46 9.63929C218.32 9.76644 218.134 9.83032 217.948 9.83032Z" fill="#3F3D56"/>
<path d="M431.485 0.635696H423.895C423.03 0.635696 422.329 1.2581 422.329 2.02661V8.7716C422.329 9.54011 423.03 10.1625 423.895 10.1625H431.485C432.351 10.1625 433.059 9.54011 433.059 8.7716V2.02661C433.059 1.2581 432.351 0.635696 431.485 0.635696Z" fill="#3F3D56"/>
<path d="M412.886 0.635696H405.296C404.431 0.635696 403.73 1.2581 403.73 2.02661V8.7716C403.73 9.54011 404.431 10.1625 405.296 10.1625H412.886C413.752 10.1625 414.46 9.54011 414.46 8.7716V2.02661C414.46 1.2581 413.752 0.635696 412.886 0.635696Z" fill="#3F3D56"/>
<path d="M449.011 0.953247H441.421C440.556 0.953247 439.855 1.57565 439.855 2.34416V9.08915C439.855 9.85766 440.556 10.4801 441.421 10.4801H449.011C449.877 10.4801 450.585 9.85766 450.585 9.08915V2.34416C450.585 1.57565 449.877 0.953247 449.011 0.953247Z" fill="#3F3D56"/>
<path d="M334.612 3.51913H273.944C272.885 3.51913 272.034 4.28129 272.034 5.21493C272.034 6.14858 272.885 6.9107 273.944 6.9107H334.612C335.664 6.9107 336.522 6.14854 336.522 5.21493C336.522 4.28132 335.664 3.51913 334.612 3.51913Z" fill="#3F3D56"/>
<path d="M461.422 26.6111H128.578C127.864 26.5976 127.298 26.0729 127.313 25.4392C127.328 24.8246 127.886 24.3295 128.578 24.3163H461.422C462.136 24.3299 462.702 24.8546 462.687 25.4883C462.672 26.1029 462.114 26.598 461.422 26.6111Z" fill="#CACACA"/>
<path d="M407.781 42.8278H383.156C381.306 42.8278 379.807 44.1591 379.807 45.8013V45.8013C379.807 47.4435 381.306 48.7747 383.156 48.7747H407.781C409.63 48.7747 411.13 47.4435 411.13 45.8013C411.13 44.1591 409.63 42.8278 407.781 42.8278Z" fill="#00B0FF"/>
<path d="M367.248 54.7216H423.689C425.538 54.7216 427.038 56.0529 427.038 57.695C427.038 59.3372 425.538 60.6685 423.689 60.6685H367.248C365.398 60.6685 363.899 59.3372 363.899 57.695C363.899 56.0529 365.398 54.7216 367.248 54.7216Z" fill="#E6E6E6"/>
<path d="M423.689 66.6154H367.248C365.398 66.6154 363.899 67.9466 363.899 69.5888V69.5888C363.899 71.231 365.398 72.5623 367.248 72.5623H423.689C425.538 72.5623 427.038 71.231 427.038 69.5888C427.038 67.9466 425.538 66.6154 423.689 66.6154Z" fill="#E6E6E6"/>
<path d="M138.699 204.19H123.153C122.736 204.19 120.434 203.109 120.434 201.776V194.108C120.36 188.309 141.744 187.93 141.824 194.108V201.776C141.824 203.109 140.2 204.19 138.699 204.19Z" fill="#E6E6E6"/>
<path d="M139.503 188.911C138.749 188.672 137.948 188.57 137.149 188.612C137.363 188.549 137.559 188.447 137.725 188.312C137.579 188.307 137.434 188.289 137.291 188.26C137.134 188.234 136.987 188.175 136.86 188.089C136.733 187.999 136.665 187.859 136.679 187.716C136.708 187.541 136.893 187.396 136.874 187.22C136.852 187.018 136.589 186.919 136.448 186.759C136.272 186.511 136.303 186.189 136.523 185.971C136.656 185.833 136.82 185.72 137.004 185.639C136.693 185.568 136.367 185.572 136.059 185.651C136.389 185.424 136.536 185.045 136.432 184.686C136.258 184.239 135.845 183.899 135.33 183.779C134.821 183.665 134.296 183.627 133.774 183.667C134.217 183.546 134.15 182.929 133.811 182.647C133.472 182.366 132.987 182.249 132.667 181.95C132.347 181.651 132.373 181.014 132.834 180.964L132.777 180.819C131.86 180.514 130.838 180.928 130.495 181.743C130.466 181.813 130.442 181.884 130.424 181.957C130.34 182.424 130.497 182.94 130.233 183.351C129.897 183.875 129.08 183.934 128.404 183.876C127.74 183.725 127.036 183.811 126.442 184.114C125.951 184.477 125.885 185.125 126.294 185.561C126.521 185.803 126.86 185.939 127.215 185.93C126.77 185.933 126.327 185.985 125.897 186.085L126.311 186.228C126.403 186.253 126.489 186.295 126.561 186.352C126.634 186.412 126.656 186.505 126.617 186.586C126.55 186.693 126.379 186.689 126.243 186.671L125.342 186.55C125.521 186.604 125.618 186.776 125.558 186.935C125.499 187.094 125.305 187.18 125.126 187.127C125.08 187.113 125.037 187.091 125.002 187.062C125.094 187.158 125.169 187.266 125.222 187.384C125.275 187.503 125.26 187.638 125.18 187.745C124.997 187.894 124.727 187.923 124.509 187.818C124.436 187.793 124.362 187.763 124.288 187.737C124.289 187.76 124.291 187.783 124.294 187.806C124.344 188.114 124.537 188.388 124.826 188.563C124.417 188.606 124.041 188.782 123.771 189.057C123.302 189.574 123.273 190.304 123.701 190.849C123.247 190.67 122.748 190.597 122.253 190.636C121.744 190.691 121.363 191.077 121.366 191.532C121.448 192.09 122.226 192.294 122.855 192.363C127.799 192.903 132.799 192.903 137.743 192.361C138.414 192.321 139.072 192.172 139.684 191.923C140.303 191.663 140.729 191.14 140.812 190.537C140.786 189.81 140.269 189.169 139.503 188.911Z" fill="#00B0FF"/>
<path d="M143.173 195.373C143.06 194.939 142.624 194.632 142.122 194.634C141.644 194.645 141.217 194.948 140.748 194.882C140.358 194.827 140.052 194.525 139.661 194.571C139.302 194.613 139.109 194.925 138.841 195.092H138.153C137.886 194.905 137.754 194.526 137.383 194.42C136.824 194.26 136.375 194.82 135.79 194.919C135.451 194.953 135.108 194.894 134.807 194.753C134.512 194.61 134.192 194.514 133.861 194.468C133.563 194.428 133.266 194.544 133.098 194.766C133.116 194.607 132.884 194.452 132.648 194.442C132.385 194.45 132.129 194.52 131.906 194.645C131.682 194.769 131.423 194.835 131.159 194.834C130.575 194.789 130.288 194.182 129.699 194.175C128.959 194.167 128.663 195.104 127.931 195.024C127.55 194.982 127.345 194.675 127.005 194.544C126.645 194.446 126.26 194.442 125.898 194.534L124.166 194.822C123.659 194.947 123.123 194.951 122.613 194.836C122.242 194.716 121.881 194.458 121.498 194.556C121.164 194.642 121.001 194.974 120.648 194.991C120.423 194.966 120.205 194.9 120.009 194.797C119.635 194.679 119.217 194.773 118.951 195.034C118.757 195.735 118.725 196.464 118.858 197.176C118.853 197.328 118.867 197.48 118.899 197.629L120.64 203.818C120.845 204.767 121.374 205.453 122.462 205.453H139.39C140.478 205.453 141.413 204.767 141.618 203.818L143.36 197.629C143.363 197.613 143.366 197.597 143.369 197.581C143.41 196.841 143.344 196.099 143.173 195.373Z" fill="#CCCCCC"/>
<path opacity="0.2" d="M122.476 194.907L122.814 198.813C122.927 200.115 122.76 201.399 122.873 202.701C122.937 203.434 123.28 204.186 123.344 204.919C123.351 205.005 123.503 205.006 123.496 204.919L123.158 201.013L122.819 197.107L122.628 194.907C122.621 194.821 122.468 194.82 122.476 194.907Z" fill="black"/>
<path opacity="0.2" d="M125.416 195.062L125.548 198.911L125.68 202.76L125.754 204.921C125.757 205.008 125.909 205.008 125.906 204.921L125.774 201.072L125.642 197.223L125.568 195.062C125.565 194.975 125.413 194.975 125.416 195.062Z" fill="black"/>
<path opacity="0.2" d="M128.264 195.293L128.224 199.013L128.184 202.71L128.161 204.806C128.163 204.844 128.198 204.873 128.24 204.872C128.28 204.871 128.312 204.842 128.314 204.806L128.354 201.087L128.394 197.389L128.416 195.293C128.415 195.255 128.38 195.226 128.337 195.227C128.297 195.229 128.265 195.257 128.264 195.293Z" fill="black"/>
<path opacity="0.2" d="M130.415 195.179L130.499 198.945L130.582 202.688L130.629 204.808C130.63 204.845 130.665 204.874 130.708 204.873C130.748 204.872 130.78 204.843 130.781 204.808L130.698 201.042L130.615 197.299L130.568 195.179C130.566 195.142 130.531 195.112 130.489 195.114C130.449 195.115 130.417 195.143 130.415 195.179Z" fill="black"/>
<path opacity="0.2" d="M133.551 195.024L133.646 198.89L133.742 202.757L133.795 204.921C133.797 204.958 133.832 204.987 133.874 204.986C133.914 204.985 133.946 204.956 133.948 204.921L133.852 201.055L133.757 197.188L133.703 195.024C133.702 194.987 133.666 194.958 133.624 194.959C133.584 194.961 133.553 194.989 133.551 195.024Z" fill="black"/>
<path opacity="0.2" d="M136.154 195.141L136.486 199.037L136.818 202.921L137.005 205.11C137.012 205.197 137.165 205.197 137.157 205.11L136.825 201.215L136.493 197.331L136.306 195.141C136.299 195.055 136.147 195.054 136.154 195.141Z" fill="black"/>
<path opacity="0.2" d="M139.046 195.595L139.247 199.16C139.314 200.348 138.974 201.536 139.041 202.724L139.153 204.726C139.158 204.812 139.311 204.813 139.306 204.726C139.239 203.537 139.579 202.349 139.512 201.161L139.311 197.597L139.199 195.595C139.194 195.509 139.042 195.508 139.046 195.595Z" fill="black"/>
<path d="M130.215 185.83C130.537 185.83 130.799 185.669 130.799 185.469C130.799 185.27 130.537 185.108 130.215 185.108C129.892 185.108 129.63 185.27 129.63 185.469C129.63 185.669 129.892 185.83 130.215 185.83Z" fill="#E6E6E6"/>
<path d="M133.924 186.642C134.246 186.642 134.508 186.481 134.508 186.281C134.508 186.082 134.246 185.92 133.924 185.92C133.601 185.92 133.339 186.082 133.339 186.281C133.339 186.481 133.601 186.642 133.924 186.642Z" fill="#3F3D56"/>
<path d="M128.741 188.401C129.064 188.401 129.326 188.24 129.326 188.04C129.326 187.841 129.064 187.68 128.741 187.68C128.419 187.68 128.157 187.841 128.157 188.04C128.157 188.24 128.419 188.401 128.741 188.401Z" fill="#FF6584"/>
<path d="M133.573 188.877C133.777 188.877 133.942 188.775 133.942 188.649C133.942 188.523 133.777 188.421 133.573 188.421C133.369 188.421 133.204 188.523 133.204 188.649C133.204 188.775 133.369 188.877 133.573 188.877Z" fill="#E6E6E6"/>
<path d="M135.917 189.39C136.121 189.39 136.286 189.288 136.286 189.162C136.286 189.036 136.121 188.934 135.917 188.934C135.713 188.934 135.548 189.036 135.548 189.162C135.548 189.288 135.713 189.39 135.917 189.39Z" fill="#3F3D56"/>
<path d="M132.642 190.502C132.846 190.502 133.011 190.4 133.011 190.274C133.011 190.148 132.846 190.046 132.642 190.046C132.438 190.046 132.272 190.148 132.272 190.274C132.272 190.4 132.438 190.502 132.642 190.502Z" fill="#FF6584"/>
<path d="M137.028 190.14C137.232 190.14 137.397 190.038 137.397 189.912C137.397 189.786 137.232 189.684 137.028 189.684C136.824 189.684 136.659 189.786 136.659 189.912C136.659 190.038 136.824 190.14 137.028 190.14Z" fill="#E6E6E6"/>
<path d="M139.372 190.653C139.576 190.653 139.741 190.551 139.741 190.425C139.741 190.299 139.576 190.197 139.372 190.197C139.168 190.197 139.003 190.299 139.003 190.425C139.003 190.551 139.168 190.653 139.372 190.653Z" fill="#3F3D56"/>
<path d="M136.097 191.765C136.301 191.765 136.466 191.663 136.466 191.537C136.466 191.411 136.301 191.309 136.097 191.309C135.893 191.309 135.727 191.411 135.727 191.537C135.727 191.663 135.893 191.765 136.097 191.765Z" fill="#FF6584"/>
<path d="M127.509 188.937C127.537 188.758 127.446 188.598 127.305 188.581C127.165 188.564 127.028 188.695 127 188.875C126.972 189.054 127.064 189.214 127.204 189.231C127.345 189.248 127.481 189.116 127.509 188.937Z" fill="#E6E6E6"/>
<path d="M126.617 190.929C126.645 190.749 126.553 190.59 126.413 190.573C126.272 190.556 126.136 190.687 126.108 190.866C126.08 191.046 126.171 191.205 126.312 191.222C126.452 191.24 126.589 191.108 126.617 190.929Z" fill="#3F3D56"/>
<path d="M125.823 187.896C125.851 187.717 125.76 187.557 125.619 187.54C125.479 187.523 125.342 187.655 125.314 187.834C125.286 188.013 125.378 188.173 125.518 188.19C125.659 188.207 125.795 188.076 125.823 187.896Z" fill="#FF6584"/>
<path d="M131.523 187.854C131.551 187.675 131.459 187.516 131.319 187.499C131.178 187.481 131.042 187.613 131.014 187.792C130.986 187.972 131.078 188.131 131.218 188.148C131.359 188.165 131.495 188.034 131.523 187.854Z" fill="#E6E6E6"/>
<path d="M130.631 189.846C130.658 189.667 130.567 189.507 130.426 189.49C130.286 189.473 130.149 189.604 130.122 189.784C130.094 189.963 130.185 190.123 130.326 190.14C130.466 190.157 130.603 190.025 130.631 189.846Z" fill="#3F3D56"/>
<path d="M129.837 186.814C129.865 186.634 129.773 186.475 129.633 186.458C129.492 186.44 129.356 186.572 129.328 186.751C129.3 186.931 129.392 187.09 129.532 187.107C129.673 187.124 129.809 186.993 129.837 186.814Z" fill="#FF6584"/>
<path d="M132.611 185.65C132.639 185.471 132.547 185.311 132.407 185.294C132.266 185.277 132.13 185.408 132.102 185.588C132.074 185.767 132.165 185.926 132.306 185.944C132.446 185.961 132.583 185.829 132.611 185.65Z" fill="#3F3D56"/>
<path d="M131.818 182.618C131.846 182.439 131.755 182.28 131.614 182.263C131.474 182.245 131.337 182.377 131.31 182.556C131.282 182.736 131.373 182.895 131.514 182.912C131.654 182.929 131.791 182.798 131.818 182.618Z" fill="#FF6584"/>
<path d="M274 147.022C276.985 147.022 279.405 145.527 279.405 143.683C279.405 141.839 276.985 140.345 274 140.345C271.014 140.345 268.594 141.839 268.594 143.683C268.594 145.527 271.014 147.022 274 147.022Z" fill="#E6E6E6"/>
<path d="M308.313 154.534C311.299 154.534 313.719 153.039 313.719 151.195C313.719 149.352 311.299 147.857 308.313 147.857C305.328 147.857 302.908 149.352 302.908 151.195C302.908 153.039 305.328 154.534 308.313 154.534Z" fill="#3F3D56"/>
<path d="M260.368 170.81C263.353 170.81 265.774 169.316 265.774 167.472C265.774 165.628 263.353 164.133 260.368 164.133C257.383 164.133 254.962 165.628 254.962 167.472C254.962 169.316 257.383 170.81 260.368 170.81Z" fill="#FF6584"/>
<path d="M337.032 186.896C338.918 186.896 340.448 185.952 340.448 184.786C340.448 183.621 338.918 182.676 337.032 182.676C335.145 182.676 333.615 183.621 333.615 184.786C333.615 185.952 335.145 186.896 337.032 186.896Z" fill="#E6E6E6"/>
<path d="M358.718 191.644C360.605 191.644 362.134 190.699 362.134 189.534C362.134 188.369 360.605 187.424 358.718 187.424C356.831 187.424 355.302 188.369 355.302 189.534C355.302 190.699 356.831 191.644 358.718 191.644Z" fill="#3F3D56"/>
<path d="M248.967 175.765C249.225 174.106 248.38 172.632 247.079 172.473C245.779 172.313 244.516 173.53 244.259 175.189C244.001 176.849 244.847 178.323 246.147 178.482C247.447 178.641 248.71 177.425 248.967 175.765Z" fill="#E6E6E6"/>
<path d="M240.712 194.192C240.969 192.533 240.124 191.059 238.824 190.899C237.524 190.74 236.261 191.957 236.003 193.616C235.746 195.276 236.591 196.75 237.891 196.909C239.192 197.068 240.454 195.852 240.712 194.192Z" fill="#3F3D56"/>
<path d="M233.37 166.137C233.628 164.477 232.783 163.003 231.482 162.844C230.182 162.685 228.919 163.901 228.662 165.561C228.404 167.22 229.25 168.694 230.55 168.854C231.85 169.013 233.113 167.796 233.37 166.137Z" fill="#FF6584"/>
<path d="M286.103 165.75C286.361 164.091 285.516 162.616 284.215 162.457C282.915 162.298 281.652 163.515 281.395 165.174C281.137 166.834 281.982 168.308 283.283 168.467C284.583 168.626 285.846 167.41 286.103 165.75Z" fill="#E6E6E6"/>
<path d="M270.505 156.121C270.762 154.461 269.917 152.987 268.617 152.828C267.316 152.669 266.053 153.885 265.796 155.545C265.538 157.204 266.384 158.678 267.684 158.837C268.984 158.996 270.247 157.78 270.505 156.121Z" fill="#FF6584"/>
<path d="M414.881 317.873C415.818 317.912 416.612 317.268 416.655 316.436C416.678 315.992 416.479 315.561 416.112 315.26C416.069 315.109 416.038 315 415.995 314.849C416.918 312.767 419.568 311.744 421.912 312.563C423.063 312.965 423.98 313.764 424.455 314.778C426.468 318.961 429.073 323.292 427.777 327.899C436.335 311.796 433.425 291.765 420.777 277.994C417.168 276.291 414.583 273.265 413.71 269.719C415.441 270.24 417.598 268.99 416.297 267.372C415.733 266.754 415.164 266.14 414.6 265.522C421.172 259.308 429.003 269.074 421.769 277.462C424.135 280.096 426.185 282.943 427.885 285.955C427.492 282.756 427.961 279.52 429.252 276.513C430.56 273.711 433.012 271.351 435.172 268.928C436.768 267.111 439.722 266.787 441.769 268.205C442.783 268.907 443.428 269.948 443.555 271.084C441.132 271.791 440.817 274.899 443.589 275.324C442.731 282.402 437.859 288.599 430.673 291.753C433.281 298.251 434.299 305.167 433.66 312.041C434.907 304.007 444.62 302.058 451.409 298.864C452.638 298.164 454.274 298.482 455.062 299.573C455.419 300.068 455.555 300.664 455.442 301.243C454.505 301.581 453.608 302.001 452.764 302.497C451.706 303.128 451.425 304.402 452.137 305.341C452.523 305.852 453.147 306.181 453.837 306.238C450.415 313.758 441.567 318.807 432.481 318.779C431.607 322.148 430.342 325.428 428.705 328.564H415.219C415.17 328.431 415.127 328.294 415.083 328.161C416.332 328.231 417.585 328.164 418.815 327.964C415.512 324.492 412.958 322.72 414.881 317.873Z" fill="#F2F2F2"/>
<path d="M150.809 317.694C149.872 317.732 149.077 317.089 149.034 316.257C149.011 315.813 149.21 315.382 149.578 315.08L149.694 314.67C148.771 312.588 146.122 311.564 143.777 312.384C142.627 312.786 141.709 313.585 141.235 314.599C139.222 318.782 136.617 323.112 137.912 327.72C129.355 311.617 132.265 291.586 144.912 277.815C148.522 276.111 151.106 273.086 151.979 269.54C150.249 270.061 148.092 268.811 149.393 267.193C149.957 266.575 150.526 265.961 151.09 265.343C144.518 259.128 136.687 268.895 143.921 277.282C141.555 279.917 139.505 282.763 137.805 285.776C138.198 282.577 137.729 279.341 136.438 276.334C135.13 273.532 132.677 271.172 130.518 268.749C128.921 266.932 125.968 266.608 123.921 268.025C122.907 268.728 122.261 269.768 122.135 270.905C124.558 271.612 124.873 274.72 122.101 275.145C122.958 282.222 127.83 288.419 135.017 291.574C132.409 298.071 131.39 304.988 132.03 311.862C130.783 303.828 121.07 301.878 114.281 298.685C113.052 297.985 111.416 298.303 110.627 299.394C110.27 299.889 110.135 300.484 110.248 301.063C111.185 301.402 112.082 301.822 112.925 302.318C113.983 302.949 114.264 304.223 113.553 305.162C113.167 305.672 112.542 306.002 111.853 306.059C115.275 313.579 124.122 318.628 133.209 318.6C134.082 321.969 135.348 325.248 136.984 328.385H150.471C150.519 328.252 150.563 328.115 150.606 327.982C149.358 328.051 148.105 327.985 146.874 327.784C150.177 324.312 152.731 322.541 150.809 317.694Z" fill="#F2F2F2"/>
<path d="M184.598 177.511L183.164 170.128L204.973 161.385L209.683 153.981C209.227 152.035 210.635 150.129 212.827 149.724C215.02 149.319 217.167 150.569 217.622 152.516C217.979 154.04 217.192 155.595 215.671 156.37L207.923 167.006L184.598 177.511Z" fill="#A0616A"/>
<path d="M177.969 171.475L187.79 167.022L190.391 175.689L183.568 180.179L177.969 171.475Z" fill="#3F3D56"/>
<path d="M155.93 318.801H161.868L164.693 298.464H155.93L155.93 318.801Z" fill="#A0616A"/>
<path d="M163.845 319.275V315.701L162.284 315.785L155.929 316.12L154.458 316.2L153.333 328.171L153.273 328.813H157.49L157.625 328.175L158.238 325.278L159.819 328.175L160.165 328.813H171.344C172.729 328.805 173.848 327.809 173.854 326.58C174.326 324.623 165.029 320.394 163.845 319.275Z" fill="#2F2E41"/>
<path d="M85.5836 299.818L90.4386 302.854L105.939 287.673L98.7738 283.192L85.5836 299.818Z" fill="#A0616A"/>
<path d="M91.9194 303.865L94.2379 300.943L92.9067 300.214L87.4947 297.238L86.2402 296.551L77.556 305.763L77.0904 306.257L80.5375 308.413L81.0617 307.961L83.4415 305.906L82.855 309.082L82.7248 309.781L91.8637 315.497C93.0006 316.198 94.5616 315.957 95.3639 314.955C97.0188 313.596 92.1622 305.385 91.9194 303.865Z" fill="#2F2E41"/>
<path d="M165.112 187.184L157.469 184.011L142.226 200.389L132.941 202.474C130.946 201.571 128.505 202.275 127.488 204.047C126.471 205.818 127.264 207.986 129.259 208.888C130.821 209.595 132.718 209.331 133.961 208.232L147.556 204.396L165.112 187.184Z" fill="#A0616A"/>
<path d="M157.406 213.565C157.406 213.565 144.865 220.816 148.181 225.634C148.296 225.8 121.468 258.869 121.468 258.869L91.3842 287.665L101.725 296.012C101.725 296.012 130.305 269.589 135.099 265.129C139.893 260.669 160.835 238.355 160.835 238.355L161.605 265.931L153.588 304.144L165.558 303.47L177.209 265.133L181.509 221.707L157.406 213.565Z" fill="#2F2E41"/>
<path d="M166.339 170.05L161.066 173.598L155.054 184.989L160.835 191.959C160.835 191.959 165.697 199.44 157.914 206.686C150.132 213.931 144.155 221.669 150.385 221.393C156.614 221.117 181.843 232.51 182.009 223.176C182.175 213.842 182.511 206.686 182.511 206.686L189.125 191.791C189.125 191.791 193.066 182.905 190.299 180.245C187.533 177.585 183.828 174.186 183.828 174.186L177.091 168.205H171.008L166.339 170.05Z" fill="#8697C4"/>
<path d="M176.184 148.164C188.016 154.142 178.303 169.913 166.251 164.297C154.42 158.32 164.133 142.548 176.184 148.164Z" fill="#A0616A"/>
<path d="M182.511 151.478C181.682 152.436 179.95 151.987 176.558 152.67C176.565 151.649 176.433 150.631 176.163 149.639C175.91 150.868 175.357 152.032 174.542 153.05C171.597 153.34 175.208 161.284 173.7 167.125C171.757 154.803 167.67 158.031 169.735 160.475C171.056 162.04 170.175 166.733 166.21 164.386C159.668 167.147 150.35 153.434 160.677 147.003C160.493 143.527 164.849 142.978 167.532 144.046C174.042 139.74 181.48 145.258 182.511 151.478Z" fill="#2F2E41"/>
<path d="M152.154 142.487C149.52 156.866 135.401 139.843 128.763 153.993C126.676 159.118 130.257 162.784 132.522 167.037C133.039 170.533 127.917 172.306 127.381 175.524C127.231 182.901 140.636 182.45 144.383 177.796C148.234 172.923 143.636 166.386 145.95 161.157C149.203 153.896 162.432 153.842 163.584 145.395C161.353 142.573 155.351 139.341 152.154 142.487Z" fill="#2F2E41"/>
<path d="M162.825 143.892C162.739 143.924 162.652 143.957 162.575 143.993H162.571C162.498 144.025 162.426 144.057 162.353 144.094C162.344 144.098 162.34 144.102 162.33 144.106C162.235 144.025 162.14 143.945 162.04 143.864C162.014 143.995 162.021 144.13 162.058 144.259L162.072 144.307C162.163 144.392 162.258 144.472 162.358 144.557C162.448 144.496 162.535 144.432 162.625 144.371C162.68 144.331 162.734 144.291 162.793 144.251C162.802 144.146 162.816 144.025 162.829 143.892L162.825 143.892ZM165.555 139.414C163.532 139.004 162.879 141.351 162.684 142.483C161.949 138.376 158.893 139.668 159.949 142.471C160.286 143.301 160.816 144.058 161.505 144.694C161.6 144.79 161.705 144.887 161.813 144.984C161.691 145.547 162.308 145.402 163.142 144.883C163.759 144.494 164.328 144.05 164.843 143.558C166.508 142.008 167.805 139.934 165.555 139.414ZM165.619 141.726C164.995 142.44 164.294 143.1 163.528 143.695C163.287 143.888 163.043 144.073 162.793 144.251C162.789 144.287 162.789 144.319 162.784 144.347C162.767 144.386 162.745 144.424 162.721 144.46C162.467 144.867 162.181 144.645 162.072 144.307C162.063 144.295 162.049 144.283 162.04 144.271C161.678 143.938 161.362 143.568 161.101 143.168C159.228 140.284 162.244 138.323 162.095 143.707C162.067 143.757 162.049 143.809 162.04 143.864C162.014 143.995 162.021 144.13 162.058 144.259L162.072 144.307C162.163 144.392 162.258 144.472 162.358 144.557C162.448 144.496 162.535 144.432 162.625 144.371C162.68 144.331 162.734 144.291 162.793 144.251C162.802 144.146 162.816 144.025 162.829 143.892L162.829 143.888C162.947 142.809 163.269 140.868 163.863 140.341C165.17 139.451 166.861 140.413 165.619 141.726ZM162.825 143.892C162.739 143.924 162.652 143.957 162.575 143.993H162.571C162.498 144.025 162.426 144.057 162.353 144.094C162.344 144.098 162.34 144.102 162.33 144.106C162.235 144.025 162.14 143.945 162.04 143.864C162.014 143.995 162.021 144.13 162.058 144.259L162.072 144.307C162.163 144.392 162.258 144.472 162.358 144.557C162.448 144.496 162.535 144.432 162.625 144.371C162.68 144.331 162.734 144.291 162.793 144.251C162.802 144.146 162.816 144.025 162.829 143.892L162.825 143.892Z" fill="#2F2E41"/>
<path d="M411.976 319.645L406.168 320.818L398.306 301.486L406.879 299.754L411.976 319.645Z" fill="#FFB6B6"/>
<path d="M413.56 324.983L395.699 328.591L395.648 328.39C394.774 324.982 397.178 321.59 401.017 320.814L403.717 317.957L410.367 318.925L411.926 318.61L413.56 324.983Z" fill="#2F2E41"/>
<path d="M487.714 309.483L482.698 312.334L467.923 296.512L475.327 292.303L487.714 309.483Z" fill="#FFB6B6"/>
<path d="M491.242 314.028L475.816 322.797L475.691 322.624C473.568 319.68 474.535 315.765 477.851 313.88L479.3 310.38L485.926 309.29L487.273 308.524L491.242 314.028Z" fill="#2F2E41"/>
<path d="M408.11 223.343L403.741 233.461L383.242 269.36L401.254 311.122L410.55 308.943L402.888 269.36L424.869 245.647L437.632 270.011L474.296 305.902L482.757 300.894L455.494 263.751L437.339 216.647L408.11 223.343Z" fill="#2F2E41"/>
<path d="M430.159 175.618L422.966 168.757L410.627 167.25L395.508 176.647L395.66 187.048L403.134 211.558C403.134 211.558 400.287 229.167 408.239 228.991C416.19 228.814 420.524 225.294 423.763 226.011C427.001 226.727 440.768 229.777 441.641 226.583C442.513 223.389 447.151 225.676 446.947 222.654C446.744 219.633 434.393 197.853 434.393 197.853L436.554 182.523C437.029 179.15 434.335 176.073 430.536 175.651C430.411 175.637 430.285 175.626 430.159 175.618Z" fill="#8697C4"/>
<path d="M479.797 218.849C477.417 219.298 475.077 217.948 474.572 215.834C474.518 215.609 474.487 215.38 474.479 215.15L441.407 203.589L447.701 199.011L479.054 211.066C481.499 211.139 483.415 212.958 483.333 215.129C483.264 216.945 481.802 218.483 479.797 218.849Z" fill="#FFB6B6"/>
<path d="M432.954 176.89C432.954 176.89 427.32 176.852 426.628 182.546C425.936 188.239 437.749 202.68 439.574 205.058C440.146 205.803 442.602 206.65 445.707 207.463C447.101 207.827 448.625 208.185 450.168 208.523C451.062 208.719 451.461 210.033 452.345 210.214C453.224 210.393 454.588 209.439 455.415 209.598C459.342 210.355 462.446 210.86 462.446 210.86L469.788 206.417C466.084 201.561 458.999 199.575 450.971 198.388L432.954 176.89Z" fill="#8697C4"/>
<path d="M350.056 150.448C350.426 152.583 352.676 154.048 355.081 153.719C355.337 153.684 355.59 153.628 355.835 153.554L379.723 176.921L382.317 170.074L358.517 148.308C357.574 146.304 354.98 145.358 352.722 146.195C350.833 146.895 349.731 148.653 350.056 150.448Z" fill="#FFB6B6"/>
<path d="M410.839 174.485C410.839 174.485 412.875 179.149 407.122 181.74C401.37 184.331 381.976 179.636 378.825 178.962C377.838 178.751 376.076 177.012 374.121 174.722C373.243 173.694 372.326 172.554 371.424 171.393C370.901 170.721 369.375 170.855 368.872 170.184C368.372 169.518 368.894 168.047 368.433 167.417C366.246 164.424 364.615 162.026 364.615 162.026L366.695 154.356C373.121 155.712 377.722 160.892 381.816 167.137L410.839 174.485Z" fill="#8697C4"/>
<path d="M417.042 165.504C423.526 165.504 428.782 160.837 428.782 155.081C428.782 149.324 423.526 144.657 417.042 144.657C410.558 144.657 405.302 149.324 405.302 155.081C405.302 160.837 410.558 165.504 417.042 165.504Z" fill="#FFB6B6"/>
<path d="M430.444 149.112C429.215 147.355 426.96 146.379 424.645 146.603C424.014 142.761 419.994 140.1 415.666 140.661C414.057 140.869 412.559 141.512 411.376 142.502C410.671 142.062 409.757 141.98 408.968 142.288C408.195 142.601 407.522 143.08 407.011 143.683C404.385 146.591 403.772 150.546 405.417 153.976C405.142 153.089 406.143 152.256 407.153 152.057C408.164 151.858 409.224 152.046 410.249 151.917C411.563 151.751 412.743 151.074 414.059 150.922C415.175 150.857 416.294 150.985 417.355 151.298C418.416 151.611 419.533 151.744 420.65 151.691C421.757 151.574 423.183 155.3 423.164 157.924C423.16 158.421 423.276 159.06 423.823 159.165C424.497 159.295 424.888 158.469 425.53 158.244C426.144 158.088 426.788 158.392 426.986 158.932C427.15 159.467 427.012 160.04 426.616 160.47C426.222 160.89 425.753 161.251 425.23 161.538L425.494 161.733C426.011 162.219 426.843 162.31 427.479 161.952C428.085 161.588 428.575 161.092 428.904 160.511C430.142 158.811 431.028 156.928 431.518 154.95C432.001 152.954 431.618 150.869 430.444 149.112Z" fill="#2F2E41"/>
<path d="M296.178 145.364C296.436 143.704 295.59 142.23 294.29 142.071C292.99 141.912 291.727 143.128 291.469 144.788C291.212 146.447 292.057 147.921 293.357 148.08C294.658 148.24 295.92 147.023 296.178 145.364Z" fill="#3F3D56"/>
<path d="M488.29 216.562H472.744C472.326 216.562 470.025 215.481 470.025 214.148V206.48C469.951 200.681 491.334 200.301 491.415 206.48V214.148C491.415 215.481 489.791 216.562 488.29 216.562Z" fill="#E6E6E6"/>
<path d="M489.094 201.283C488.34 201.044 487.539 200.942 486.74 200.984C486.953 200.921 487.15 200.819 487.316 200.684C487.17 200.679 487.025 200.661 486.882 200.632C486.725 200.606 486.577 200.547 486.451 200.461C486.323 200.371 486.255 200.231 486.27 200.088C486.299 199.913 486.483 199.768 486.465 199.592C486.443 199.39 486.18 199.291 486.039 199.131C485.863 198.883 485.893 198.561 486.114 198.343C486.247 198.205 486.411 198.092 486.595 198.011C486.284 197.94 485.958 197.944 485.65 198.023C485.98 197.796 486.127 197.417 486.023 197.058C485.849 196.611 485.435 196.271 484.92 196.151C484.412 196.037 483.886 195.999 483.364 196.039C483.808 195.918 483.741 195.301 483.402 195.019C483.063 194.738 482.578 194.621 482.258 194.322C481.938 194.023 481.964 193.386 482.425 193.336L482.368 193.19C481.45 192.886 480.429 193.3 480.086 194.115C480.057 194.185 480.033 194.256 480.015 194.329C479.931 194.796 480.088 195.312 479.824 195.723C479.487 196.247 478.671 196.306 477.995 196.248C477.331 196.097 476.627 196.182 476.033 196.486C475.542 196.849 475.475 197.497 475.884 197.933C476.111 198.175 476.451 198.311 476.805 198.302C476.361 198.305 475.918 198.357 475.487 198.457L475.902 198.599C475.994 198.625 476.079 198.667 476.152 198.724C476.224 198.783 476.247 198.877 476.207 198.958C476.141 199.065 475.97 199.061 475.834 199.043L474.933 198.922C475.112 198.975 475.209 199.148 475.149 199.307C475.089 199.466 474.896 199.552 474.716 199.499C474.67 199.485 474.628 199.463 474.593 199.434C474.685 199.53 474.759 199.638 474.813 199.755C474.866 199.875 474.85 200.01 474.771 200.117C474.588 200.266 474.318 200.295 474.1 200.19C474.027 200.165 473.953 200.135 473.878 200.109C473.88 200.132 473.882 200.155 473.885 200.178C473.935 200.486 474.128 200.76 474.417 200.935C474.008 200.978 473.632 201.154 473.361 201.429C472.892 201.946 472.864 202.676 473.292 203.221C472.837 203.042 472.339 202.969 471.844 203.008C471.335 203.063 470.953 203.449 470.957 203.904C471.039 204.462 471.817 204.666 472.445 204.735C477.389 205.275 482.39 205.275 487.333 204.733C488.005 204.693 488.663 204.544 489.275 204.295C489.893 204.035 490.319 203.512 490.403 202.909C490.377 202.182 489.86 201.541 489.094 201.283Z" fill="#00B0FF"/>
<path d="M492.764 207.745C492.651 207.311 492.215 207.004 491.713 207.006C491.235 207.017 490.808 207.32 490.339 207.254C489.949 207.199 489.643 206.897 489.251 206.943C488.892 206.985 488.7 207.297 488.432 207.464H487.744C487.477 207.277 487.345 206.898 486.974 206.792C486.415 206.632 485.966 207.192 485.381 207.291C485.042 207.325 484.699 207.266 484.398 207.124C484.103 206.982 483.783 206.886 483.452 206.84C483.154 206.8 482.857 206.916 482.688 207.137C482.707 206.979 482.475 206.824 482.239 206.814C481.976 206.822 481.72 206.892 481.497 207.017C481.273 207.141 481.014 207.207 480.75 207.206C480.165 207.161 479.878 206.554 479.29 206.547C478.55 206.539 478.254 207.476 477.522 207.396C477.141 207.354 476.935 207.047 476.596 206.916C476.236 206.818 475.851 206.814 475.489 206.906L473.757 207.194C473.249 207.319 472.714 207.323 472.204 207.208C471.832 207.088 471.472 206.83 471.089 206.928C470.755 207.014 470.592 207.346 470.239 207.363C470.013 207.338 469.796 207.272 469.6 207.169C469.226 207.051 468.808 207.145 468.541 207.406C468.348 208.107 468.316 208.836 468.449 209.548C468.444 209.7 468.457 209.852 468.489 210.001L470.231 216.189C470.436 217.139 470.964 217.825 472.053 217.825H488.981C490.069 217.825 491.004 217.139 491.209 216.189L492.951 210.001C492.954 209.985 492.956 209.969 492.959 209.953C493.001 209.213 492.935 208.471 492.764 207.745Z" fill="#CCCCCC"/>
<path opacity="0.2" d="M472.067 207.279L472.405 211.185C472.518 212.487 472.351 213.771 472.464 215.073C472.528 215.806 472.871 216.558 472.934 217.291C472.942 217.377 473.094 217.378 473.087 217.291L472.748 213.385L472.41 209.479L472.219 207.279C472.212 207.193 472.059 207.192 472.067 207.279Z" fill="black"/>
<path opacity="0.2" d="M475.007 207.434L475.139 211.283L475.27 215.132L475.345 217.293C475.348 217.38 475.5 217.38 475.497 217.293L475.365 213.444L475.233 209.595L475.159 207.434C475.156 207.347 475.004 207.347 475.007 207.434Z" fill="black"/>
<path opacity="0.2" d="M477.855 207.665L477.815 211.385L477.775 215.082L477.752 217.178C477.754 217.216 477.789 217.245 477.831 217.244C477.871 217.243 477.903 217.214 477.905 217.178L477.945 213.459L477.985 209.761L478.007 207.665C478.006 207.627 477.97 207.598 477.928 207.599C477.888 207.601 477.856 207.629 477.855 207.665Z" fill="black"/>
<path opacity="0.2" d="M480.006 207.551L480.09 211.317L480.173 215.06L480.22 217.18C480.221 217.217 480.256 217.246 480.298 217.245C480.338 217.244 480.371 217.215 480.372 217.18L480.289 213.414L480.206 209.671L480.159 207.551C480.157 207.514 480.122 207.484 480.08 207.486C480.04 207.487 480.008 207.515 480.006 207.551Z" fill="black"/>
<path opacity="0.2" d="M483.142 207.396L483.237 211.262L483.333 215.129L483.386 217.293C483.387 217.33 483.423 217.359 483.465 217.358C483.505 217.357 483.537 217.328 483.538 217.293L483.443 213.427L483.348 209.56L483.294 207.396C483.293 207.359 483.258 207.33 483.215 207.331C483.175 207.332 483.143 207.361 483.142 207.396Z" fill="black"/>
<path opacity="0.2" d="M485.745 207.513L486.077 211.409L486.409 215.293L486.596 217.482C486.603 217.569 486.755 217.569 486.748 217.482L486.416 213.587L486.084 209.703L485.897 207.513C485.89 207.427 485.737 207.426 485.745 207.513Z" fill="black"/>
<path opacity="0.2" d="M488.637 207.967L488.838 211.532C488.905 212.72 488.565 213.908 488.632 215.096L488.744 217.098C488.749 217.184 488.902 217.185 488.897 217.098C488.83 215.909 489.17 214.721 489.103 213.533L488.902 209.969L488.79 207.967C488.785 207.881 488.632 207.88 488.637 207.967Z" fill="black"/>
<path d="M479.806 198.202C480.128 198.202 480.39 198.041 480.39 197.841C480.39 197.642 480.128 197.48 479.806 197.48C479.483 197.48 479.221 197.642 479.221 197.841C479.221 198.041 479.483 198.202 479.806 198.202Z" fill="#E6E6E6"/>
<path d="M483.515 199.014C483.837 199.014 484.099 198.853 484.099 198.653C484.099 198.454 483.837 198.292 483.515 198.292C483.192 198.292 482.93 198.454 482.93 198.653C482.93 198.853 483.192 199.014 483.515 199.014Z" fill="#3F3D56"/>
<path d="M478.332 200.773C478.655 200.773 478.917 200.612 478.917 200.412C478.917 200.213 478.655 200.052 478.332 200.052C478.01 200.052 477.748 200.213 477.748 200.412C477.748 200.612 478.01 200.773 478.332 200.773Z" fill="#FF6584"/>
<path d="M483.164 201.249C483.368 201.249 483.533 201.147 483.533 201.021C483.533 200.895 483.368 200.793 483.164 200.793C482.96 200.793 482.794 200.895 482.794 201.021C482.794 201.147 482.96 201.249 483.164 201.249Z" fill="#E6E6E6"/>
<path d="M485.508 201.762C485.712 201.762 485.877 201.66 485.877 201.534C485.877 201.408 485.712 201.306 485.508 201.306C485.304 201.306 485.139 201.408 485.139 201.534C485.139 201.66 485.304 201.762 485.508 201.762Z" fill="#3F3D56"/>
<path d="M482.233 202.874C482.437 202.874 482.602 202.772 482.602 202.646C482.602 202.52 482.437 202.418 482.233 202.418C482.029 202.418 481.863 202.52 481.863 202.646C481.863 202.772 482.029 202.874 482.233 202.874Z" fill="#FF6584"/>
<path d="M486.619 202.512C486.823 202.512 486.988 202.41 486.988 202.284C486.988 202.158 486.823 202.056 486.619 202.056C486.415 202.056 486.249 202.158 486.249 202.284C486.249 202.41 486.415 202.512 486.619 202.512Z" fill="#E6E6E6"/>
<path d="M488.963 203.025C489.167 203.025 489.332 202.923 489.332 202.797C489.332 202.671 489.167 202.569 488.963 202.569C488.759 202.569 488.593 202.671 488.593 202.797C488.593 202.923 488.759 203.025 488.963 203.025Z" fill="#3F3D56"/>
<path d="M485.687 204.137C485.891 204.137 486.057 204.035 486.057 203.909C486.057 203.783 485.891 203.681 485.687 203.681C485.484 203.681 485.318 203.783 485.318 203.909C485.318 204.035 485.484 204.137 485.687 204.137Z" fill="#FF6584"/>
<path d="M477.1 201.309C477.128 201.13 477.037 200.97 476.896 200.953C476.756 200.936 476.619 201.067 476.591 201.247C476.563 201.426 476.655 201.586 476.795 201.603C476.936 201.62 477.072 201.488 477.1 201.309Z" fill="#E6E6E6"/>
<path d="M476.205 203.3C476.233 203.121 476.141 202.961 476.001 202.944C475.86 202.927 475.724 203.058 475.696 203.238C475.668 203.417 475.76 203.576 475.9 203.594C476.041 203.611 476.177 203.479 476.205 203.3Z" fill="#3F3D56"/>
<path d="M475.414 200.268C475.442 200.089 475.351 199.929 475.21 199.912C475.069 199.895 474.933 200.027 474.905 200.206C474.877 200.385 474.969 200.545 475.109 200.562C475.25 200.579 475.386 200.448 475.414 200.268Z" fill="#FF6584"/>
<path d="M481.114 200.226C481.142 200.047 481.05 199.888 480.91 199.87C480.769 199.853 480.633 199.985 480.605 200.164C480.577 200.344 480.668 200.503 480.809 200.52C480.95 200.537 481.086 200.406 481.114 200.226Z" fill="#E6E6E6"/>
<path d="M480.221 202.218C480.249 202.039 480.158 201.879 480.017 201.862C479.877 201.845 479.74 201.976 479.712 202.156C479.685 202.335 479.776 202.495 479.917 202.512C480.057 202.529 480.194 202.397 480.221 202.218Z" fill="#3F3D56"/>
<path d="M479.428 199.186C479.456 199.006 479.364 198.847 479.224 198.83C479.083 198.812 478.947 198.944 478.919 199.123C478.891 199.303 478.982 199.462 479.123 199.479C479.264 199.496 479.4 199.365 479.428 199.186Z" fill="#FF6584"/>
<path d="M482.203 198.023C482.231 197.843 482.139 197.684 481.999 197.667C481.858 197.65 481.722 197.781 481.694 197.961C481.666 198.14 481.757 198.299 481.898 198.317C482.039 198.334 482.175 198.202 482.203 198.023Z" fill="#3F3D56"/>
<path d="M481.409 194.99C481.437 194.811 481.346 194.652 481.205 194.634C481.065 194.617 480.928 194.749 480.9 194.928C480.873 195.108 480.964 195.267 481.104 195.284C481.245 195.301 481.382 195.17 481.409 194.99Z" fill="#FF6584"/>
<path d="M590 329.276C589.451 330.72 0.592218 329.792 0 328.352C0.548167 326.905 589.407 327.833 590 329.276Z" fill="#CCCCCC"/>
<path d="M229.133 254.256C218.796 254.256 210.416 246.816 210.417 237.639C210.417 228.461 218.796 221.021 229.133 221.021C239.469 221.021 247.849 228.461 247.849 237.639C247.849 246.816 239.469 254.256 229.133 254.256Z" fill="#E6E6E6"/>
<path d="M236.518 236H230.979V231.082C230.979 230.177 230.152 229.443 229.133 229.443C228.113 229.443 227.286 230.177 227.286 231.082V236H221.748C220.728 236 219.901 236.733 219.901 237.639C219.901 238.544 220.728 239.278 221.748 239.278H227.286V244.195C227.289 245.101 228.117 245.833 229.137 245.831C230.153 245.829 230.976 245.098 230.979 244.195V239.278H236.518C237.537 239.278 238.364 238.544 238.364 237.639C238.364 236.733 237.537 236 236.518 236Z" fill="white"/>
<path d="M283.89 254.256C273.554 254.256 265.174 246.816 265.174 237.639C265.174 228.461 273.554 221.021 283.89 221.021C294.227 221.021 302.606 228.461 302.606 237.639C302.606 246.816 294.227 254.256 283.89 254.256Z" fill="#E6E6E6"/>
<path d="M291.275 236H276.505C275.486 236 274.659 236.733 274.659 237.639C274.659 238.544 275.486 239.278 276.505 239.278H291.275C292.295 239.278 293.121 238.544 293.121 237.639C293.121 236.733 292.295 236 291.275 236Z" fill="white"/>
<path d="M338.648 254.256C328.311 254.256 319.932 246.816 319.932 237.639C319.932 228.461 328.311 221.022 338.648 221.021C348.984 221.021 357.364 228.461 357.364 237.639C357.364 246.816 348.984 254.256 338.648 254.256Z" fill="#3D52A0"/>
<path d="M349.177 236.849L343.871 229.973C343.38 229.337 342.401 229.174 341.684 229.61C340.967 230.046 340.784 230.916 341.275 231.553L344.706 235.999H331.263C330.243 235.999 329.417 236.733 329.417 237.639C329.417 238.544 330.243 239.278 331.263 239.278H344.875L341.275 243.944C340.785 244.581 340.971 245.45 341.689 245.885C342.404 246.318 343.38 246.156 343.871 245.523L349.177 238.647C349.529 238.088 349.529 237.408 349.177 236.849Z" fill="white"/>
<path d="M202.703 57.6951H178.078C176.228 57.6951 174.729 59.0263 174.729 60.6685V60.6685C174.729 62.3107 176.228 63.6419 178.078 63.6419H202.703C204.552 63.6419 206.052 62.3107 206.052 60.6685C206.052 59.0263 204.552 57.6951 202.703 57.6951Z" fill="#00B0FF"/>
<path d="M218.611 69.5888H162.17C160.321 69.5888 158.821 70.9201 158.821 72.5623V72.5623C158.821 74.2045 160.321 75.5357 162.17 75.5357H218.611C220.46 75.5357 221.96 74.2045 221.96 72.5623C221.96 70.9201 220.46 69.5888 218.611 69.5888Z" fill="#E6E6E6"/>
<path d="M218.611 81.4826H162.17C160.321 81.4826 158.821 82.8139 158.821 84.456V84.4561C158.821 86.0982 160.321 87.4295 162.17 87.4295H218.611C220.46 87.4295 221.96 86.0982 221.96 84.456C221.96 82.8139 220.46 81.4826 218.611 81.4826Z" fill="#E6E6E6"/>
<path d="M215.13 145.329H213.699V97.6677H111.651V96.3975H215.13V145.329Z" fill="#E6E6E6"/>
<path d="M95.7058 110.982C106.681 110.982 115.578 103.083 115.578 93.3385C115.578 83.5941 106.681 75.6948 95.7058 75.6948C84.7306 75.6948 75.8335 83.5941 75.8335 93.3385C75.8335 103.083 84.7306 110.982 95.7058 110.982Z" fill="#3D52A0"/>
<path d="M92.9948 102.521C92.299 102.521 91.6439 102.23 91.2266 101.736L85.8051 95.3179C85.0727 94.4508 85.2706 93.2206 86.2473 92.5703C87.224 91.92 88.6095 92.0958 89.3419 92.9629L92.8888 97.1614L101.999 85.0294C102.676 84.1275 104.048 83.8838 105.064 84.4851C106.08 85.0863 106.354 86.3049 105.677 87.2068L94.8343 101.647C94.4363 102.177 93.7734 102.503 93.0563 102.521C93.0358 102.521 93.0153 102.521 92.9948 102.521Z" fill="white"/>
<path d="M349.925 142.817H348.494V93.885H451.974V95.1552H349.925V142.817Z" fill="#E6E6E6"/>
<path d="M467.842 108.47C478.817 108.47 487.714 100.57 487.714 90.8259C487.714 81.0816 478.817 73.1822 467.842 73.1822C456.867 73.1822 447.97 81.0816 447.97 90.8259C447.97 100.57 456.867 108.47 467.842 108.47Z" fill="#3D52A0"/>
<path d="M465.131 100.009C464.435 100.009 463.78 99.7177 463.363 99.2234L457.941 92.8054C457.206 91.9399 457.401 90.7093 458.376 90.0568C459.351 89.4044 460.737 89.5771 461.471 90.4426L461.478 90.4504L465.025 94.6489L474.135 82.5169C474.812 81.615 476.184 81.3713 477.2 81.9725C478.216 82.5738 478.49 83.7923 477.813 84.6942L466.97 99.1346C466.572 99.6645 465.91 99.9901 465.192 100.008C465.172 100.008 465.151 100.009 465.131 100.009Z" fill="white"/>
<path d="M220.817 150.961H205.271C204.853 150.961 202.552 149.88 202.552 148.547V140.88C202.478 135.08 223.861 134.701 223.942 140.88V148.547C223.942 149.88 222.318 150.961 220.817 150.961Z" fill="#E6E6E6"/>
<path d="M221.621 135.682C220.867 135.443 220.066 135.341 219.266 135.383C219.48 135.32 219.677 135.218 219.843 135.083C219.697 135.078 219.552 135.06 219.409 135.031C219.252 135.005 219.104 134.946 218.978 134.86C218.85 134.771 218.782 134.63 218.797 134.487C218.826 134.312 219.01 134.167 218.991 133.991C218.97 133.789 218.707 133.69 218.566 133.53C218.39 133.282 218.42 132.96 218.64 132.742C218.774 132.604 218.938 132.491 219.121 132.41C218.811 132.339 218.485 132.343 218.177 132.422C218.507 132.195 218.654 131.816 218.55 131.457C218.376 131.01 217.962 130.67 217.447 130.55C216.939 130.436 216.413 130.398 215.891 130.438C216.335 130.317 216.268 129.7 215.929 129.419C215.59 129.137 215.105 129.02 214.785 128.721C214.465 128.422 214.491 127.785 214.952 127.735L214.895 127.59C213.977 127.285 212.956 127.699 212.613 128.514C212.584 128.584 212.56 128.655 212.542 128.728C212.458 129.195 212.615 129.712 212.351 130.122C212.014 130.646 211.198 130.705 210.522 130.647C209.858 130.496 209.154 130.582 208.56 130.885C208.069 131.248 208.002 131.896 208.411 132.332C208.638 132.574 208.978 132.71 209.332 132.702C208.888 132.704 208.445 132.756 208.015 132.856L208.429 132.999C208.521 133.024 208.606 133.066 208.679 133.123C208.751 133.183 208.774 133.276 208.734 133.357C208.668 133.464 208.497 133.46 208.361 133.442L207.46 133.321C207.639 133.375 207.736 133.547 207.676 133.706C207.616 133.865 207.423 133.951 207.243 133.898C207.197 133.884 207.155 133.862 207.12 133.833C207.212 133.929 207.287 134.037 207.34 134.155C207.393 134.274 207.377 134.409 207.298 134.516C207.115 134.665 206.845 134.694 206.627 134.589C206.554 134.564 206.48 134.534 206.405 134.508C206.407 134.531 206.409 134.554 206.412 134.577C206.462 134.885 206.655 135.159 206.944 135.335C206.535 135.377 206.159 135.553 205.888 135.828C205.419 136.345 205.391 137.075 205.819 137.62C205.364 137.441 204.866 137.368 204.371 137.407C203.862 137.463 203.48 137.848 203.484 138.303C203.566 138.861 204.344 139.065 204.972 139.134C209.916 139.674 214.916 139.674 219.86 139.132C220.532 139.092 221.19 138.944 221.802 138.694C222.42 138.434 222.846 137.911 222.93 137.308C222.904 136.581 222.387 135.94 221.621 135.682Z" fill="#00B0FF"/>
<path d="M225.291 142.144C225.178 141.71 224.742 141.403 224.24 141.405C223.762 141.416 223.335 141.719 222.866 141.653C222.476 141.598 222.17 141.296 221.778 141.342C221.419 141.384 221.226 141.696 220.958 141.863H220.271C220.003 141.676 219.872 141.297 219.501 141.191C218.942 141.031 218.493 141.591 217.908 141.69C217.569 141.724 217.226 141.666 216.925 141.524C216.63 141.381 216.31 141.285 215.978 141.239C215.681 141.199 215.384 141.315 215.215 141.537C215.233 141.378 215.002 141.223 214.766 141.213C214.503 141.221 214.247 141.291 214.024 141.416C213.8 141.54 213.541 141.606 213.277 141.605C212.692 141.56 212.405 140.953 211.817 140.947C211.077 140.938 210.781 141.875 210.048 141.795C209.668 141.753 209.462 141.446 209.123 141.315C208.763 141.217 208.378 141.214 208.016 141.306L206.284 141.593C205.776 141.718 205.241 141.722 204.731 141.607C204.359 141.488 203.999 141.229 203.616 141.328C203.282 141.413 203.119 141.745 202.766 141.762C202.54 141.737 202.323 141.671 202.127 141.568C201.753 141.45 201.335 141.544 201.068 141.805C200.875 142.506 200.843 143.235 200.976 143.948C200.971 144.099 200.984 144.251 201.016 144.401L202.758 150.589C202.963 151.538 203.491 152.224 204.58 152.224H221.508C222.596 152.224 223.531 151.538 223.736 150.589L225.478 144.401C225.481 144.384 225.483 144.369 225.486 144.353C225.528 143.612 225.462 142.87 225.291 142.144Z" fill="#CCCCCC"/>
<path opacity="0.2" d="M204.594 141.678L204.932 145.584C205.045 146.886 204.878 148.17 204.991 149.472C205.054 150.205 205.398 150.957 205.461 151.69C205.469 151.776 205.621 151.777 205.614 151.69L205.275 147.784L204.937 143.878L204.746 141.678C204.739 141.592 204.586 141.591 204.594 141.678Z" fill="black"/>
<path opacity="0.2" d="M207.534 141.833L207.665 145.682L207.797 149.531L207.871 151.692C207.874 151.779 208.027 151.779 208.024 151.692L207.892 147.843L207.76 143.994L207.686 141.833C207.683 141.746 207.531 141.746 207.534 141.833Z" fill="black"/>
<path opacity="0.2" d="M210.382 142.064L210.341 145.784L210.302 149.481L210.279 151.578C210.28 151.615 210.316 151.644 210.358 151.643C210.398 151.642 210.43 151.613 210.431 151.578L210.472 147.858L210.511 144.16L210.534 142.064C210.533 142.026 210.497 141.997 210.455 141.998C210.415 142 210.383 142.028 210.382 142.064Z" fill="black"/>
<path opacity="0.2" d="M212.533 141.95L212.617 145.716L212.699 149.459L212.746 151.579C212.748 151.616 212.783 151.645 212.825 151.644C212.865 151.643 212.898 151.614 212.899 151.579L212.815 147.813L212.733 144.07L212.686 141.95C212.684 141.913 212.649 141.883 212.607 141.885C212.567 141.886 212.535 141.914 212.533 141.95Z" fill="black"/>
<path opacity="0.2" d="M215.669 141.795L215.764 145.662L215.86 149.528L215.913 151.692C215.914 151.729 215.95 151.759 215.992 151.757C216.032 151.756 216.064 151.728 216.065 151.692L215.97 147.826L215.875 143.96L215.821 141.795C215.82 141.758 215.784 141.729 215.742 141.73C215.702 141.731 215.67 141.76 215.669 141.795Z" fill="black"/>
<path opacity="0.2" d="M218.272 141.913L218.604 145.808L218.936 149.692L219.122 151.882C219.13 151.968 219.282 151.969 219.275 151.882L218.942 147.986L218.611 144.102L218.424 141.913C218.417 141.826 218.264 141.826 218.272 141.913Z" fill="black"/>
<path opacity="0.2" d="M221.164 142.367L221.365 145.931C221.431 147.119 221.092 148.307 221.159 149.495L221.271 151.497C221.276 151.583 221.428 151.584 221.424 151.497C221.357 150.309 221.696 149.12 221.63 147.932L221.429 144.368L221.317 142.367C221.312 142.28 221.159 142.279 221.164 142.367Z" fill="black"/>
<path d="M212.333 132.601C212.655 132.601 212.917 132.44 212.917 132.24C212.917 132.041 212.655 131.879 212.333 131.879C212.01 131.879 211.748 132.041 211.748 132.24C211.748 132.44 212.01 132.601 212.333 132.601Z" fill="#E6E6E6"/>
<path d="M216.041 133.413C216.364 133.413 216.626 133.252 216.626 133.052C216.626 132.853 216.364 132.691 216.041 132.691C215.719 132.691 215.457 132.853 215.457 133.052C215.457 133.252 215.719 133.413 216.041 133.413Z" fill="#3F3D56"/>
<path d="M210.859 135.172C211.182 135.172 211.443 135.011 211.443 134.812C211.443 134.612 211.182 134.451 210.859 134.451C210.536 134.451 210.275 134.612 210.275 134.812C210.275 135.011 210.536 135.172 210.859 135.172Z" fill="#FF6584"/>
<path d="M215.691 135.648C215.895 135.648 216.06 135.546 216.06 135.42C216.06 135.294 215.895 135.192 215.691 135.192C215.487 135.192 215.321 135.294 215.321 135.42C215.321 135.546 215.487 135.648 215.691 135.648Z" fill="#E6E6E6"/>
<path d="M218.035 136.161C218.239 136.161 218.404 136.059 218.404 135.933C218.404 135.807 218.239 135.705 218.035 135.705C217.831 135.705 217.665 135.807 217.665 135.933C217.665 136.059 217.831 136.161 218.035 136.161Z" fill="#3F3D56"/>
<path d="M214.759 137.273C214.963 137.273 215.129 137.171 215.129 137.045C215.129 136.919 214.963 136.817 214.759 136.817C214.556 136.817 214.39 136.919 214.39 137.045C214.39 137.171 214.556 137.273 214.759 137.273Z" fill="#FF6584"/>
<path d="M219.146 136.911C219.349 136.911 219.515 136.809 219.515 136.683C219.515 136.557 219.349 136.455 219.146 136.455C218.942 136.455 218.776 136.557 218.776 136.683C218.776 136.809 218.942 136.911 219.146 136.911Z" fill="#E6E6E6"/>
<path d="M221.49 137.424C221.694 137.424 221.859 137.322 221.859 137.196C221.859 137.07 221.694 136.968 221.49 136.968C221.286 136.968 221.12 137.07 221.12 137.196C221.12 137.322 221.286 137.424 221.49 137.424Z" fill="#3F3D56"/>
<path d="M218.214 138.536C218.418 138.536 218.584 138.434 218.584 138.308C218.584 138.182 218.418 138.08 218.214 138.08C218.01 138.08 217.845 138.182 217.845 138.308C217.845 138.434 218.01 138.536 218.214 138.536Z" fill="#FF6584"/>
<path d="M209.627 135.708C209.655 135.529 209.563 135.369 209.423 135.352C209.282 135.335 209.146 135.467 209.118 135.646C209.09 135.825 209.182 135.985 209.322 136.002C209.463 136.019 209.599 135.888 209.627 135.708Z" fill="#E6E6E6"/>
<path d="M208.734 137.7C208.762 137.52 208.671 137.361 208.53 137.344C208.39 137.327 208.253 137.458 208.226 137.638C208.198 137.817 208.289 137.976 208.43 137.993C208.57 138.011 208.707 137.879 208.734 137.7Z" fill="#3F3D56"/>
<path d="M207.941 134.667C207.969 134.488 207.877 134.329 207.737 134.311C207.596 134.294 207.46 134.426 207.432 134.605C207.404 134.784 207.496 134.944 207.636 134.961C207.777 134.978 207.913 134.847 207.941 134.667Z" fill="#FF6584"/>
<path d="M213.641 134.626C213.669 134.446 213.577 134.287 213.437 134.27C213.296 134.252 213.16 134.384 213.132 134.563C213.104 134.743 213.195 134.902 213.336 134.919C213.476 134.936 213.613 134.805 213.641 134.626Z" fill="#E6E6E6"/>
<path d="M212.748 136.617C212.776 136.438 212.685 136.278 212.544 136.261C212.404 136.244 212.267 136.376 212.239 136.555C212.211 136.734 212.303 136.894 212.443 136.911C212.584 136.928 212.72 136.797 212.748 136.617Z" fill="#3F3D56"/>
<path d="M211.955 133.585C211.983 133.405 211.891 133.246 211.751 133.229C211.61 133.212 211.474 133.343 211.446 133.522C211.418 133.702 211.509 133.861 211.65 133.878C211.79 133.895 211.927 133.764 211.955 133.585Z" fill="#FF6584"/>
<path d="M214.728 132.421C214.756 132.242 214.665 132.083 214.524 132.065C214.384 132.048 214.247 132.18 214.219 132.359C214.191 132.538 214.283 132.698 214.423 132.715C214.564 132.732 214.7 132.601 214.728 132.421Z" fill="#3F3D56"/>
<path d="M213.936 129.389C213.964 129.21 213.873 129.051 213.732 129.034C213.592 129.016 213.455 129.148 213.427 129.327C213.399 129.507 213.491 129.666 213.631 129.683C213.772 129.7 213.908 129.569 213.936 129.389Z" fill="#FF6584"/>
<path d="M357.743 148.283H342.198C341.78 148.283 339.479 147.202 339.479 145.868V138.201C339.404 132.402 360.788 132.022 360.869 138.201V145.868C360.869 147.202 359.245 148.283 357.743 148.283Z" fill="#E6E6E6"/>
<path d="M358.548 133.004C357.794 132.765 356.993 132.663 356.193 132.705C356.407 132.642 356.604 132.54 356.77 132.405C356.624 132.399 356.478 132.382 356.336 132.353C356.179 132.327 356.031 132.268 355.904 132.181C355.777 132.092 355.709 131.952 355.723 131.809C355.753 131.634 355.937 131.489 355.918 131.313C355.896 131.11 355.634 131.012 355.493 130.852C355.317 130.604 355.347 130.282 355.567 130.064C355.701 129.925 355.864 129.812 356.048 129.732C355.738 129.661 355.412 129.665 355.104 129.744C355.434 129.517 355.58 129.138 355.477 128.779C355.303 128.332 354.889 127.992 354.374 127.871C353.866 127.758 353.34 127.72 352.818 127.76C353.262 127.639 353.195 127.022 352.856 126.74C352.517 126.459 352.032 126.341 351.712 126.043C351.392 125.744 351.418 125.106 351.879 125.057L351.822 124.911C350.904 124.607 349.882 125.021 349.54 125.836C349.51 125.905 349.487 125.977 349.469 126.05C349.384 126.517 349.542 127.033 349.278 127.444C348.941 127.968 348.124 128.027 347.448 127.969C346.784 127.818 346.08 127.903 345.487 128.207C344.996 128.57 344.929 129.218 345.338 129.654C345.565 129.896 345.905 130.032 346.259 130.023C345.814 130.026 345.372 130.078 344.941 130.178L345.356 130.32C345.448 130.346 345.533 130.388 345.605 130.445C345.678 130.504 345.7 130.598 345.661 130.679C345.595 130.785 345.424 130.782 345.288 130.764L344.387 130.643C344.566 130.696 344.663 130.868 344.603 131.028C344.543 131.187 344.349 131.273 344.17 131.22C344.124 131.206 344.082 131.184 344.046 131.155C344.139 131.251 344.213 131.359 344.267 131.476C344.319 131.596 344.304 131.731 344.225 131.838C344.041 131.987 343.772 132.016 343.554 131.91C343.48 131.885 343.406 131.856 343.332 131.83C343.334 131.853 343.335 131.876 343.339 131.899C343.388 132.206 343.581 132.481 343.87 132.656C343.462 132.699 343.085 132.874 342.815 133.15C342.346 133.667 342.318 134.397 342.746 134.942C342.291 134.763 341.793 134.69 341.298 134.729C340.789 134.784 340.407 135.17 340.41 135.625C340.492 136.183 341.27 136.387 341.899 136.456C346.843 136.996 351.843 136.996 356.787 136.454C357.459 136.414 358.117 136.265 358.728 136.016C359.347 135.756 359.773 135.233 359.857 134.629C359.83 133.903 359.314 133.261 358.548 133.004Z" fill="#00B0FF"/>
<path d="M362.218 139.466C362.105 139.032 361.668 138.725 361.167 138.727C360.689 138.738 360.262 139.041 359.793 138.975C359.403 138.92 359.097 138.618 358.705 138.664C358.346 138.706 358.153 139.018 357.885 139.185H357.198C356.93 138.998 356.799 138.619 356.427 138.513C355.868 138.353 355.42 138.913 354.834 139.012C354.495 139.045 354.153 138.987 353.852 138.845C353.557 138.703 353.237 138.607 352.905 138.561C352.607 138.521 352.311 138.637 352.142 138.858C352.16 138.7 351.928 138.544 351.693 138.534C351.43 138.543 351.174 138.613 350.951 138.737C350.727 138.862 350.468 138.928 350.204 138.927C349.619 138.882 349.332 138.275 348.744 138.268C348.004 138.26 347.707 139.196 346.975 139.117C346.594 139.075 346.389 138.768 346.049 138.637C345.689 138.539 345.305 138.535 344.942 138.627L343.211 138.915C342.703 139.04 342.168 139.044 341.658 138.929C341.286 138.809 340.925 138.551 340.542 138.649C340.209 138.735 340.046 139.067 339.693 139.084C339.467 139.059 339.249 138.993 339.054 138.89C338.679 138.772 338.262 138.866 337.995 139.127C337.801 139.828 337.77 140.557 337.903 141.269C337.897 141.421 337.911 141.573 337.943 141.722L339.685 147.91C339.89 148.859 340.418 149.546 341.506 149.546H358.434C359.523 149.546 360.458 148.859 360.663 147.91L362.404 141.722C362.408 141.706 362.41 141.69 362.413 141.674C362.454 140.934 362.389 140.192 362.218 139.466Z" fill="#CCCCCC"/>
<path opacity="0.2" d="M341.521 139L341.859 142.906C341.972 144.208 341.805 145.492 341.918 146.794C341.981 147.527 342.324 148.279 342.388 149.012C342.396 149.098 342.548 149.099 342.54 149.012L342.202 145.106L341.864 141.2L341.673 139C341.665 138.914 341.513 138.913 341.521 139Z" fill="black"/>
<path opacity="0.2" d="M344.46 139.155L344.592 143.004L344.724 146.853L344.798 149.014C344.801 149.101 344.953 149.101 344.951 149.014L344.819 145.165L344.687 141.316L344.613 139.155C344.61 139.068 344.457 139.067 344.46 139.155Z" fill="black"/>
<path opacity="0.2" d="M347.308 139.386L347.268 143.105L347.228 146.803L347.206 148.899C347.207 148.937 347.243 148.966 347.285 148.965C347.325 148.963 347.357 148.935 347.358 148.899L347.398 145.179L347.438 141.482L347.461 139.386C347.459 139.348 347.424 139.319 347.382 139.32C347.342 139.321 347.31 139.35 347.308 139.386Z" fill="black"/>
<path opacity="0.2" d="M349.46 139.272L349.543 143.038L349.626 146.781L349.673 148.9C349.675 148.938 349.71 148.967 349.752 148.966C349.792 148.965 349.824 148.936 349.826 148.9L349.742 145.135L349.659 141.391L349.612 139.272C349.611 139.234 349.576 139.205 349.533 139.206C349.493 139.208 349.461 139.236 349.46 139.272Z" fill="black"/>
<path opacity="0.2" d="M352.596 139.117L352.691 142.983L352.786 146.85L352.84 149.014C352.841 149.051 352.876 149.08 352.918 149.079C352.959 149.078 352.991 149.049 352.992 149.014L352.897 145.148L352.801 141.281L352.748 139.117C352.746 139.08 352.711 139.051 352.669 139.052C352.629 139.053 352.597 139.082 352.596 139.117Z" fill="black"/>
<path opacity="0.2" d="M355.199 139.234L355.531 143.13L355.862 147.014L356.049 149.203C356.057 149.29 356.209 149.29 356.202 149.203L355.869 145.308L355.538 141.423L355.351 139.234C355.344 139.148 355.191 139.147 355.199 139.234Z" fill="black"/>
<path opacity="0.2" d="M358.091 139.688L358.291 143.253C358.358 144.441 358.018 145.629 358.085 146.817L358.198 148.818C358.203 148.905 358.355 148.906 358.35 148.818C358.283 147.63 358.623 146.442 358.556 145.254L358.356 141.69L358.243 139.688C358.238 139.602 358.086 139.601 358.091 139.688Z" fill="black"/>
<path d="M349.259 129.923C349.582 129.923 349.844 129.761 349.844 129.562C349.844 129.363 349.582 129.201 349.259 129.201C348.937 129.201 348.675 129.363 348.675 129.562C348.675 129.761 348.937 129.923 349.259 129.923Z" fill="#E6E6E6"/>
<path d="M352.968 130.735C353.291 130.735 353.552 130.573 353.552 130.374C353.552 130.175 353.291 130.013 352.968 130.013C352.645 130.013 352.384 130.175 352.384 130.374C352.384 130.573 352.645 130.735 352.968 130.735Z" fill="#3F3D56"/>
<path d="M347.786 132.494C348.109 132.494 348.37 132.333 348.37 132.133C348.37 131.934 348.109 131.772 347.786 131.772C347.463 131.772 347.202 131.934 347.202 132.133C347.202 132.333 347.463 132.494 347.786 132.494Z" fill="#FF6584"/>
<path d="M352.617 132.97C352.821 132.97 352.987 132.868 352.987 132.742C352.987 132.616 352.821 132.514 352.617 132.514C352.413 132.514 352.248 132.616 352.248 132.742C352.248 132.868 352.413 132.97 352.617 132.97Z" fill="#E6E6E6"/>
<path d="M354.961 133.483C355.165 133.483 355.331 133.381 355.331 133.255C355.331 133.129 355.165 133.027 354.961 133.027C354.758 133.027 354.592 133.129 354.592 133.255C354.592 133.381 354.758 133.483 354.961 133.483Z" fill="#3F3D56"/>
<path d="M351.686 134.595C351.89 134.595 352.055 134.493 352.055 134.367C352.055 134.241 351.89 134.139 351.686 134.139C351.482 134.139 351.317 134.241 351.317 134.367C351.317 134.493 351.482 134.595 351.686 134.595Z" fill="#FF6584"/>
<path d="M356.072 134.233C356.276 134.233 356.442 134.131 356.442 134.005C356.442 133.879 356.276 133.777 356.072 133.777C355.868 133.777 355.703 133.879 355.703 134.005C355.703 134.131 355.868 134.233 356.072 134.233Z" fill="#E6E6E6"/>
<path d="M358.416 134.746C358.62 134.746 358.786 134.644 358.786 134.518C358.786 134.392 358.62 134.29 358.416 134.29C358.212 134.29 358.047 134.392 358.047 134.518C358.047 134.644 358.212 134.746 358.416 134.746Z" fill="#3F3D56"/>
<path d="M355.141 135.858C355.345 135.858 355.51 135.756 355.51 135.63C355.51 135.504 355.345 135.402 355.141 135.402C354.937 135.402 354.772 135.504 354.772 135.63C354.772 135.756 354.937 135.858 355.141 135.858Z" fill="#FF6584"/>
<path d="M346.554 133.03C346.582 132.851 346.49 132.691 346.35 132.674C346.209 132.657 346.073 132.788 346.045 132.968C346.017 133.147 346.108 133.306 346.249 133.324C346.389 133.341 346.526 133.209 346.554 133.03Z" fill="#E6E6E6"/>
<path d="M345.661 135.022C345.689 134.842 345.598 134.683 345.457 134.666C345.317 134.648 345.18 134.78 345.152 134.959C345.124 135.139 345.216 135.298 345.356 135.315C345.497 135.332 345.633 135.201 345.661 135.022Z" fill="#3F3D56"/>
<path d="M344.868 131.989C344.896 131.81 344.804 131.65 344.664 131.633C344.523 131.616 344.387 131.747 344.359 131.927C344.331 132.106 344.422 132.266 344.563 132.283C344.703 132.3 344.84 132.168 344.868 131.989Z" fill="#FF6584"/>
<path d="M350.568 131.947C350.595 131.768 350.504 131.609 350.363 131.591C350.223 131.574 350.086 131.706 350.059 131.885C350.031 132.064 350.122 132.224 350.263 132.241C350.403 132.258 350.54 132.127 350.568 131.947Z" fill="#E6E6E6"/>
<path d="M349.675 133.939C349.703 133.76 349.611 133.6 349.471 133.583C349.33 133.566 349.194 133.697 349.166 133.877C349.138 134.056 349.23 134.215 349.37 134.233C349.511 134.25 349.647 134.118 349.675 133.939Z" fill="#3F3D56"/>
<path d="M348.882 130.906C348.909 130.727 348.818 130.568 348.677 130.55C348.537 130.533 348.4 130.665 348.373 130.844C348.345 131.024 348.436 131.183 348.577 131.2C348.717 131.217 348.854 131.086 348.882 130.906Z" fill="#FF6584"/>
<path d="M351.654 129.743C351.682 129.564 351.591 129.404 351.45 129.387C351.31 129.37 351.173 129.502 351.145 129.681C351.118 129.86 351.209 130.02 351.35 130.037C351.49 130.054 351.627 129.923 351.654 129.743Z" fill="#3F3D56"/>
<path d="M350.863 126.711C350.891 126.532 350.799 126.373 350.659 126.355C350.518 126.338 350.382 126.47 350.354 126.649C350.326 126.828 350.418 126.988 350.558 127.005C350.699 127.022 350.835 126.891 350.863 126.711Z" fill="#FF6584"/>
</g>
<defs>
<clipPath id="clip0_36_368">
<rect width="590" height="330" fill="white"/>
</clipPath>
</defs>
</svg>
