<svg width="107" height="107" viewBox="0 0 107 107" fill="none" xmlns="http://www.w3.org/2000/svg">
<rect opacity="0.14" x="0.241699" y="0.464844" width="106" height="106" rx="30" fill="#3D52A0"/>
<path d="M53.2419 79.2257C49.7192 75.6569 46.4539 71.7445 43.4803 67.5293C39.0179 61.1991 33.7187 51.7718 33.7187 42.7883C33.7168 38.2004 34.8609 33.7149 37.0061 29.8995C39.1514 26.0841 42.2015 23.1103 45.7703 21.3545C49.3391 19.5986 53.2663 19.1397 57.0548 20.0357C60.8433 20.9318 64.3229 23.1425 67.0531 26.3881C68.8709 28.5375 70.3116 31.0937 71.2921 33.9087C72.2725 36.7238 72.7732 39.7419 72.765 42.7883C72.765 51.7718 67.4659 61.1991 63.0034 67.5293C60.0298 71.7445 56.7646 75.6569 53.2419 79.2257ZM53.2419 32.8508C51.0228 32.8508 48.8946 33.8978 47.3255 35.7614C45.7563 37.6251 44.8748 40.1527 44.8748 42.7883C44.8748 45.4239 45.7563 47.9515 47.3255 49.8152C48.8946 51.6788 51.0228 52.7258 53.2419 52.7258C55.461 52.7258 57.5891 51.6788 59.1583 49.8152C60.7274 47.9515 61.6089 45.4239 61.6089 42.7883C61.6089 40.1527 60.7274 37.6251 59.1583 35.7614C57.5891 33.8978 55.461 32.8508 53.2419 32.8508Z" fill="#3D52A0"/>
</svg>
