<svg id="visual" viewBox="0 0 600 900" width="600" height="900" xmlns="http://www.w3.org/2000/svg" xmlns:xlink="http://www.w3.org/1999/xlink" version="1.1"><rect x="0" y="0" width="600" height="900" fill="#eeeeee"></rect><path d="M0 436L14.3 452.8C28.7 469.7 57.3 503.3 85.8 499.8C114.3 496.3 142.7 455.7 171.2 445.8C199.7 436 228.3 457 257 468.5C285.7 480 314.3 482 343 490.3C371.7 498.7 400.3 513.3 428.8 496.3C457.3 479.3 485.7 430.7 514.2 429.7C542.7 428.7 571.3 475.3 585.7 498.7L600 522L600 901L585.7 901C571.3 901 542.7 901 514.2 901C485.7 901 457.3 901 428.8 901C400.3 901 371.7 901 343 901C314.3 901 285.7 901 257 901C228.3 901 199.7 901 171.2 901C142.7 901 114.3 901 85.8 901C57.3 901 28.7 901 14.3 901L0 901Z" fill="#abe3d7" stroke-linecap="round" stroke-linejoin="miter"></path></svg>