<svg width="30" height="30" viewBox="0 0 30 30" fill="none" xmlns="http://www.w3.org/2000/svg">
<path d="M23.71 16.4375H18.8663C18.2242 16.4368 17.6081 16.6908 17.153 17.1438C16.6979 17.5967 16.4411 18.2117 16.4388 18.8538V23.6975C16.4384 24.0164 16.501 24.3322 16.6229 24.6269C16.7447 24.9215 16.9235 25.1893 17.149 25.4147C17.3745 25.6402 17.6422 25.819 17.9369 25.9409C18.2316 26.0628 18.5474 26.1253 18.8663 26.125H23.71C24.3519 26.1224 24.9665 25.8654 25.4192 25.4103C25.8718 24.9553 26.1257 24.3394 26.125 23.6975V18.8538C26.1253 18.5365 26.0631 18.2223 25.9418 17.9292C25.8206 17.636 25.6427 17.3697 25.4184 17.1454C25.1941 16.921 24.9277 16.7432 24.6346 16.6219C24.3414 16.5007 24.0272 16.4384 23.71 16.4388M10.2588 16.4375H5.415C4.77324 16.4411 4.15901 16.6986 3.7065 17.1537C3.25399 17.6088 2.99999 18.2245 3 18.8663V23.71C2.99967 24.0272 3.06191 24.3414 3.18316 24.6346C3.30441 24.9277 3.48229 25.1941 3.7066 25.4184C3.93092 25.6427 4.19728 25.8206 4.49043 25.9418C4.78358 26.0631 5.09777 26.1253 5.415 26.125H10.2588C10.9006 26.1257 11.5165 25.8718 11.9716 25.4192C12.4266 24.9665 12.6836 24.3519 12.6863 23.71V18.8663C12.6866 18.5474 12.624 18.2316 12.5021 17.9369C12.3803 17.6422 12.2015 17.3745 11.976 17.149C11.7505 16.9235 11.4828 16.7447 11.1881 16.6229C10.8934 16.501 10.5776 16.4384 10.2588 16.4388M10.2588 3H5.415C5.09777 2.99967 4.78358 3.06191 4.49043 3.18316C4.19728 3.30441 3.93092 3.48229 3.7066 3.7066C3.48229 3.93092 3.30441 4.19728 3.18316 4.49043C3.06191 4.78358 2.99967 5.09777 3 5.415V10.2588C2.99933 10.9006 3.25316 11.5165 3.70585 11.9716C4.15853 12.4266 4.77315 12.6836 5.415 12.6863H10.2588C10.5776 12.6866 10.8934 12.624 11.1881 12.5021C11.4828 12.3803 11.7505 12.2015 11.976 11.976C12.2015 11.7505 12.3803 11.4828 12.5021 11.1881C12.624 10.8934 12.6866 10.5776 12.6863 10.2588V5.415C12.6836 4.77315 12.4266 4.15853 11.9716 3.70585C11.5165 3.25316 10.9006 2.99933 10.2588 3ZM23.71 3H18.8663C18.2244 2.99933 17.6085 3.25316 17.1534 3.70585C16.6984 4.15853 16.4414 4.77315 16.4388 5.415V10.2588C16.4391 10.9025 16.6949 11.5197 17.1501 11.9749C17.6053 12.4301 18.2225 12.6859 18.8663 12.6863H23.71C24.3519 12.6836 24.9665 12.4266 25.4192 11.9716C25.8718 11.5165 26.1257 10.9006 26.125 10.2588V5.415C26.1253 5.09777 26.0631 4.78358 25.9418 4.49043C25.8206 4.19728 25.6427 3.93092 25.4184 3.7066C25.1941 3.48229 24.9277 3.30441 24.6346 3.18316C24.3414 3.06191 24.0272 2.99967 23.71 3Z" stroke="black" stroke-width="1.5" stroke-linecap="round" stroke-linejoin="round"/>
</svg>
