<svg width="26" height="26" viewBox="0 0 26 26" fill="none" xmlns="http://www.w3.org/2000/svg">
<path d="M10.5 4.25C10.5 4.74246 10.403 5.23009 10.2145 5.68506C10.0261 6.14003 9.74987 6.55343 9.40165 6.90165C9.05343 7.24987 8.64003 7.52609 8.18506 7.71455C7.73009 7.903 7.24246 8 6.75 8C6.25754 8 5.76991 7.903 5.31494 7.71455C4.85997 7.52609 4.44657 7.24987 4.09835 6.90165C3.75013 6.55343 3.47391 6.14003 3.28545 5.68506C3.097 5.23009 3 4.74246 3 4.25C3 3.25544 3.39509 2.30161 4.09835 1.59835C4.80161 0.895088 5.75544 0.5 6.75 0.5C7.74456 0.5 8.69839 0.895088 9.40165 1.59835C10.1049 2.30161 10.5 3.25544 10.5 4.25ZM13 15.5C13.4925 15.5 13.9801 15.403 14.4351 15.2145C14.89 15.0261 15.3034 14.7499 15.6517 14.4017C15.9999 14.0534 16.2761 13.64 16.4645 13.1851C16.653 12.7301 16.75 12.2425 16.75 11.75C16.75 11.2575 16.653 10.7699 16.4645 10.3149C16.2761 9.85997 15.9999 9.44657 15.6517 9.09835C15.3034 8.75013 14.89 8.47391 14.4351 8.28545C13.9801 8.097 13.4925 8 13 8C12.0054 8 11.0516 8.39509 10.3483 9.09835C9.64509 9.80161 9.25 10.7554 9.25 11.75C9.25 12.7446 9.64509 13.6984 10.3483 14.4017C11.0516 15.1049 12.0054 15.5 13 15.5ZM6.875 10.5H3C2.33696 10.5 1.70107 10.7634 1.23223 11.2322C0.763392 11.7011 0.5 12.337 0.5 13V13.5175C0.5 15.0075 1.3575 16.2325 2.4925 17.035C3.1725 17.5175 3.985 17.875 4.8725 18.085C5.545 16.865 6.7125 15.96 8.1025 15.6325C7.53445 14.9191 7.13007 14.0897 6.91796 13.2028C6.70585 12.3159 6.69118 11.3932 6.875 10.5ZM17.9 15.6325C18.5792 15.793 19.2172 16.0939 19.7731 16.5159C20.3289 16.9379 20.7903 17.4715 21.1275 18.0825C22.015 17.875 22.8275 17.5175 23.5075 17.035C24.6425 16.235 25.5 15.0075 25.5 13.5175V13C25.5 12.337 25.2366 11.7011 24.7678 11.2322C24.2989 10.7634 23.663 10.5 23 10.5H19.125C19.3057 11.3931 19.2898 12.3149 19.0782 13.2013C18.8667 14.0876 18.4646 14.9173 17.9 15.6325ZM9.25 18C8.58696 18 7.95107 18.2634 7.48223 18.7322C7.01339 19.2011 6.75 19.837 6.75 20.5V20.9175C6.75 22.385 7.6425 23.5625 8.77 24.3125C9.9075 25.075 11.4075 25.5 13 25.5C14.5925 25.5 16.0925 25.0725 17.23 24.3125C18.355 23.5625 19.25 22.385 19.25 20.9175V20.5C19.25 19.837 18.9866 19.2011 18.5178 18.7322C18.0489 18.2634 17.413 18 16.75 18H9.25ZM20.5 8C21.4946 8 22.4484 7.60491 23.1517 6.90165C23.8549 6.19839 24.25 5.24456 24.25 4.25C24.25 3.25544 23.8549 2.30161 23.1517 1.59835C22.4484 0.895088 21.4946 0.5 20.5 0.5C19.5054 0.5 18.5516 0.895088 17.8483 1.59835C17.1451 2.30161 16.75 3.25544 16.75 4.25C16.75 5.24456 17.1451 6.19839 17.8483 6.90165C18.5516 7.60491 19.5054 8 20.5 8Z" fill="black"/>
</svg>
