<svg width="80" height="80" viewBox="0 0 80 80" fill="none" xmlns="http://www.w3.org/2000/svg">
<g clip-path="url(#clip0_27_305)">
<path d="M40 7.5C31.32 7.5 23.155 10.88 17.02 17.02C10.885 23.16 7.5 31.32 7.5 40C7.5 48.68 10.88 56.845 17.02 62.98C23.16 69.115 31.32 72.5 40 72.5C48.68 72.5 56.845 69.12 62.98 62.98C69.115 56.84 72.5 48.68 72.5 40C72.5 31.32 69.12 23.155 62.98 17.02C56.84 10.885 48.68 7.5 40 7.5ZM40 0C50.6087 0 60.7828 4.21427 68.2843 11.7157C75.7857 19.2172 80 29.3913 80 40C80 50.6087 75.7857 60.7828 68.2843 68.2843C60.7828 75.7857 50.6087 80 40 80C29.3913 80 19.2172 75.7857 11.7157 68.2843C4.21427 60.7828 0 50.6087 0 40C0 29.3913 4.21427 19.2172 11.7157 11.7157C19.2172 4.21427 29.3913 0 40 0ZM35 55H45V65H35V55ZM35 15H45V45H35V15Z" fill="#4ECB71"/>
</g>
<defs>
<clipPath id="clip0_27_305">
<rect width="80" height="80" fill="white"/>
</clipPath>
</defs>
</svg>
