<svg width="80" height="80" viewBox="0 0 80 80" fill="none" xmlns="http://www.w3.org/2000/svg">
<path d="M63.0667 46.6666C62.6079 49.8496 61.4942 52.903 59.796 55.6339C58.0978 58.3648 55.8519 60.7141 53.2 62.5333C52.5333 59.7666 48.4333 57.5 43.0667 56.8666C43.6333 52.9 44.8 49.2 45.6 47.0666C46.8667 47.8666 48.3333 48.3333 50 48.3333C61.8333 48.3333 60 28.3333 60 28.3333C60 28.3333 58.3333 31.6666 53.3333 31.6666H50C48.5173 31.6662 47.0612 32.0614 45.7822 32.8115C44.5031 33.5615 43.4474 34.6393 42.7238 35.9335C42.0003 37.2277 41.6352 38.6916 41.6661 40.174C41.6971 41.6564 42.123 43.1038 42.9 44.3666C45.1 42.0666 47.4667 40 50 38.3333C45.6 42.7666 42.2333 48.3333 40 53.6666C37.9 49.5666 35.2667 46.4333 33.3333 45C34.9 45.6666 36.3667 46.6666 37.7667 47.6666C38.1333 46.8666 38.3333 45.9666 38.3333 45C38.1667 35.9 23.3333 36.6666 23.3333 36.6666C24.3667 38.0666 25 39.8333 25 41.6666V45C25 48.6666 28 51.6666 31.6667 51.6666C33.3333 51.6666 34.8333 51.0666 36 50C36.7667 52.1 37.3333 54.5 37.6333 56.8C31.9 57.3 27.5 59.6333 26.8 62.5666C20.7 58.3333 16.6667 51.3 16.6667 43.3333C16.6667 30.4666 27.1333 20 40 20V30L56.6667 16.6666L40 3.33331V13.3333C32.0435 13.3333 24.4129 16.494 18.7868 22.1201C13.1607 27.7462 10 35.3768 10 43.3333C10 51.2898 13.1607 58.9204 18.7868 64.5465C24.4129 70.1726 32.0435 73.3333 40 73.3333C55.4333 73.3333 68.1333 61.6666 69.8 46.6666H63.0667Z" fill="#4ECB71"/>
</svg>
