<svg width="107" height="107" viewBox="0 0 107 107" fill="none" xmlns="http://www.w3.org/2000/svg">
<rect opacity="0.14" x="0.241699" y="0.464844" width="106" height="106" rx="30" fill="#3D52A0"/>
<g clip-path="url(#clip0_1_177)">
<path d="M75.7417 73.7048C75.7417 74.6783 74.9373 75.4648 73.9417 75.4648H32.5417C31.5461 75.4648 30.7417 74.6783 30.7417 73.7048V50.6048H75.7417V73.7048ZM32.5417 35.4248H41.9917V31.9048C41.9917 31.6628 42.1942 31.4648 42.4417 31.4648H45.5917C45.8392 31.4648 46.0417 31.6628 46.0417 31.9048V35.4248H60.4417V31.9048C60.4417 31.6628 60.6442 31.4648 60.8917 31.4648H64.0417C64.2892 31.4648 64.4917 31.6628 64.4917 31.9048V35.4248H73.9417C74.9373 35.4248 75.7417 36.2113 75.7417 37.1848V46.8648H30.7417V37.1848C30.7417 36.2113 31.5461 35.4248 32.5417 35.4248Z" fill="#3D52A0"/>
</g>
<defs>
<clipPath id="clip0_1_177">
<rect width="45" height="44" fill="white" transform="matrix(-1 0 0 1 75.7417 31.4648)"/>
</clipPath>
</defs>
</svg>
