<svg id="visual" viewBox="0 0 900 600" width="900" height="600" xmlns="http://www.w3.org/2000/svg" xmlns:xlink="http://www.w3.org/1999/xlink" version="1.1"><path d="M0 97L30 103C60 109 120 121 180 128C240 135 300 137 360 128C420 119 480 99 540 101C600 103 660 127 720 123C780 119 840 87 870 71L900 55L900 0L870 0C840 0 780 0 720 0C660 0 600 0 540 0C480 0 420 0 360 0C300 0 240 0 180 0C120 0 60 0 30 0L0 0Z" fill="#48a2fd"></path><path d="M0 229L30 246C60 263 120 297 180 294C240 291 300 251 360 237C420 223 480 235 540 255C600 275 660 303 720 304C780 305 840 279 870 266L900 253L900 53L870 69C840 85 780 117 720 121C660 125 600 101 540 99C480 97 420 117 360 126C300 135 240 133 180 126C120 119 60 107 30 101L0 95Z" fill="#4098fe"></path><path d="M0 349L30 362C60 375 120 401 180 408C240 415 300 403 360 403C420 403 480 415 540 420C600 425 660 423 720 419C780 415 840 409 870 406L900 403L900 251L870 264C840 277 780 303 720 302C660 301 600 273 540 253C480 233 420 221 360 235C300 249 240 289 180 292C120 295 60 261 30 244L0 227Z" fill="#3f8dfe"></path><path d="M0 403L30 413C60 423 120 443 180 450C240 457 300 451 360 450C420 449 480 453 540 456C600 459 660 461 720 462C780 463 840 463 870 463L900 463L900 401L870 404C840 407 780 413 720 417C660 421 600 423 540 418C480 413 420 401 360 401C300 401 240 413 180 406C120 399 60 373 30 360L0 347Z" fill="#4481fd"></path><path d="M0 493L30 494C60 495 120 497 180 502C240 507 300 515 360 522C420 529 480 535 540 535C600 535 660 529 720 522C780 515 840 507 870 503L900 499L900 461L870 461C840 461 780 461 720 460C660 459 600 457 540 454C480 451 420 447 360 448C300 449 240 455 180 448C120 441 60 421 30 411L0 401Z" fill="#4f75fb"></path><path d="M0 601L30 601C60 601 120 601 180 601C240 601 300 601 360 601C420 601 480 601 540 601C600 601 660 601 720 601C780 601 840 601 870 601L900 601L900 497L870 501C840 505 780 513 720 520C660 527 600 533 540 533C480 533 420 527 360 520C300 513 240 505 180 500C120 495 60 493 30 492L0 491Z" fill="#5c67f7"></path></svg>