<svg width="31" height="31" viewBox="0 0 31 31" fill="none" xmlns="http://www.w3.org/2000/svg">
<g clip-path="url(#clip0_223_34)">
<path d="M0 2.58333C0 1.89819 0.272172 1.24111 0.756641 0.756641C1.24111 0.272172 1.89819 0 2.58333 0L7.75 0V2.58333H2.58333V7.75H0V2.58333ZM31 28.4167C31 29.1018 30.7278 29.7589 30.2434 30.2434C29.7589 30.7278 29.1018 31 28.4167 31H23.25V28.4167H28.4167V23.25H31V28.4167ZM2.58333 31C1.89819 31 1.24111 30.7278 0.756641 30.2434C0.272172 29.7589 0 29.1018 0 28.4167V23.25H2.58333V28.4167H7.75V31H2.58333ZM28.4167 0C29.1018 0 29.7589 0.272172 30.2434 0.756641C30.7278 1.24111 31 1.89819 31 2.58333V7.75H28.4167V2.58333H23.25V0H28.4167Z" fill="white"/>
<path d="M24.6595 8.47456V6.84706L23.1168 6.66622C23.0311 6.66622 22.5169 6.57581 21.6599 6.57581C18.1461 6.57581 15.575 7.66081 14.118 9.55956C13.0039 8.83622 11.4612 8.38414 9.66148 8.38414C8.80445 8.38414 8.20453 8.47456 8.20453 8.47456L6.57617 8.74581L6.66187 10.2829C6.74758 12.9954 8.03312 18.1491 12.4897 18.1491C12.5754 18.1491 12.5754 18.1491 12.6611 18.1491V21.2233C9.40437 21.6754 6.66187 22.8508 6.66187 22.8508V24.6591H23.8025V22.8508C23.8025 22.8508 21.06 21.6754 17.8033 21.2233V18.33C23.2026 18.2396 24.6595 11.82 24.6595 8.47456ZM15.2322 21.0425C14.9751 21.0425 14.6323 21.0425 14.3751 21.0425V15.9791C14.3751 15.9791 14.2037 12.905 11.8041 12.905C11.8041 12.905 13.0896 13.6283 13.4324 16.2504C13.0896 16.3408 12.7468 16.3408 12.4897 16.3408C8.54734 16.3408 8.37593 10.2829 8.37593 10.2829C8.37593 10.2829 8.89015 10.1925 9.66148 10.1925C11.2898 10.1925 13.9466 10.5541 14.718 12.9954C15.1465 8.92664 19.5173 8.38414 21.6599 8.38414C22.4312 8.38414 22.9454 8.47456 22.9454 8.47456C22.9454 8.47456 22.9454 16.6121 17.5462 16.6121C17.3747 16.6121 17.1176 16.6121 16.9462 16.6121C16.9462 14.8037 18.6603 12.0912 18.6603 12.0912C16.0892 12.9954 16.0892 16.5216 16.0892 16.5216V21.0425C15.8321 21.0425 15.4893 21.0425 15.2322 21.0425Z" fill="white"/>
</g>
<defs>
<clipPath id="clip0_223_34">
<rect width="31" height="31" fill="white"/>
</clipPath>
</defs>
</svg>
