<svg width="80" height="80" viewBox="0 0 80 80" fill="none" xmlns="http://www.w3.org/2000/svg">
<path d="M41.6665 76.6667C40.2776 76.6667 39.0976 76.1945 38.1265 75.25C37.1554 74.3056 36.6687 73.1389 36.6665 71.75C36.6665 71.0834 36.7921 70.4445 37.0432 69.8334C37.2943 69.2223 37.6687 68.6945 38.1665 68.25L41.6665 65L45.1665 68.25C45.6665 68.6945 46.0421 69.2223 46.2932 69.8334C46.5443 70.4445 46.6687 71.0834 46.6665 71.75C46.6665 73.1389 46.181 74.3056 45.2098 75.25C44.2387 76.1945 43.0576 76.6667 41.6665 76.6667ZM30.1665 71.6667L26.6665 68.1667L36.4998 58.3334L39.9998 61.8334L30.1665 71.6667ZM51.6665 66.6667L46.6665 61.6667L51.6665 56.6667L56.6665 61.6667L51.6665 66.6667ZM21.6665 66.6667L16.6665 61.6667L21.6665 56.6667L26.6665 61.6667L21.6665 66.6667ZM24.9998 53.3334C19.9443 53.3334 15.6254 51.5422 12.0432 47.96C8.46095 44.3778 6.66873 40.0578 6.6665 35C6.6665 30.3889 8.19428 26.3611 11.2498 22.9167C14.3054 19.4722 18.0832 17.4445 22.5832 16.8334C24.361 13.6667 26.7921 11.18 29.8765 9.37336C32.961 7.56669 36.3354 6.66447 39.9998 6.66669C44.9998 6.66669 49.3476 8.26447 53.0432 11.46C56.7387 14.6556 58.9743 18.6411 59.7498 23.4167C63.5832 23.75 66.8054 25.3334 69.4165 28.1667C72.0276 31 73.3332 34.3889 73.3332 38.3334C73.3332 42.5 71.8754 46.0422 68.9598 48.96C66.0443 51.8778 62.5021 53.3356 58.3332 53.3334H24.9998Z" fill="#4ECB71"/>
</svg>
